<svg xmlns="http://www.w3.org/2000/svg" width="45" height="45" viewBox="1100 4441 45 45"><g data-name="Social"><path d="M1122.5 4486c12.426 0 22.5-10.074 22.5-22.5s-10.074-22.5-22.5-22.5-22.5 10.074-22.5 22.5 10.074 22.5 22.5 22.5Z" fill="#fff" fill-rule="evenodd" data-name="Background"/><g data-name="instagram 1"><g data-name="Group"><g data-name="Group"><path d="M1128.656 4455h-11.312a2.347 2.347 0 0 0-2.344 2.344v11.312a2.346 2.346 0 0 0 2.344 2.344h11.312a2.346 2.346 0 0 0 2.344-2.344v-11.312a2.346 2.346 0 0 0-2.344-2.344Zm1.407 13.656c0 .776-.631 1.407-1.407 1.407h-11.312c-.776 0-1.407-.631-1.407-1.407v-11.312c0-.776.631-1.407 1.407-1.407h11.312c.776 0 1.407.631 1.407 1.407v11.312Z" fill-rule="evenodd" data-name="Vector"/></g><g data-name="Group"><path d="M1128.156 4456.906a.939.939 0 0 0 0 1.875.939.939 0 0 0 0-1.875Z" fill-rule="evenodd" data-name="Vector"/></g><g data-name="Group"><path d="M1123 4458.781a4.223 4.223 0 0 0-4.219 4.219 4.223 4.223 0 0 0 4.219 4.219 4.223 4.223 0 0 0 4.219-4.219 4.223 4.223 0 0 0-4.219-4.219Zm0 7.5a3.285 3.285 0 0 1-3.281-3.281 3.285 3.285 0 0 1 3.281-3.281 3.285 3.285 0 0 1 3.281 3.281 3.285 3.285 0 0 1-3.281 3.281Z" fill-rule="evenodd" data-name="Vector"/></g></g></g></g></svg>