<svg width="385.000000" height="12.000000" viewBox="0 0 385 12" fill="none" xmlns="http://www.w3.org/2000/svg" xmlns:xlink="http://www.w3.org/1999/xlink">
	<desc>
			Created with Pixso.
	</desc>
	<defs/>
	<rect id="Decore" width="385.000000" height="12.000000" transform="translate(0.000000 -0.535278)" fill="#FFFFFF" fill-opacity="0"/>
	<mask id="mask6_255" mask-type="alpha" maskUnits="userSpaceOnUse" x="0.000000" y="-0.535278" width="385.000000" height="12.000000">
		<rect id="Rectangle 36" y="-0.535278" width="385.000000" height="12.000000" fill="#C4C4C4" fill-opacity="1.000000"/>
		<rect id="Rectangle 36" x="0.500000" y="-0.035278" width="384.000000" height="11.000000" stroke="#707070" stroke-opacity="0" stroke-width="1.000000"/>
	</mask>
	<g mask="url(#mask6_255)">
		<path id="Vector" d="M51.2 -0.21L52.03 -0.4L50.45 -0.63L51.23 -0.84C52 -0.85 52.98 -0.59 53.53 -0.75C53.61 -0.9 52.77 -0.93 52.57 -1.04C52.38 -1.15 52.24 -1.27 52.13 -1.38C52.55 -1.39 53.01 -1.37 53.48 -1.33C54.11 -1.25 54.74 -1.22 55.29 -1.24C56.4 -1.24 57.48 -1.29 58.7 -1.31L58.31 -1.65L59.87 -1.6C60.04 -1.58 60.24 -1.62 60.4 -1.59C61.74 -1.34 62.32 -1.5 62.98 -1.64C63.12 -1.68 63.28 -1.71 63.47 -1.73C65.27 -1.7 66.88 -1.34 68.49 -1.17C68.8 -1.12 69.09 -1.06 69.34 -0.99C69.9 -0.85 70.52 -0.75 71.16 -0.68C71.79 -0.61 72.41 -0.58 72.96 -0.59C74.18 -0.62 75.55 -0.55 76.94 -0.39C77.35 -0.33 77.76 -0.3 78.15 -0.29C78.54 -0.28 78.9 -0.3 79.2 -0.33L80.13 -0.15C80.55 -0.24 81.07 -0.3 81.67 -0.31C82.27 -0.33 82.94 -0.31 83.62 -0.25C84.35 -0.19 85.1 -0.15 85.86 -0.08C87.43 0.04 88.96 0.11 90.4 0.11C92.55 0.16 94.65 0.19 96.81 0.27C98.16 0.3 99.49 0.3 100.77 0.28C102.3 0.27 103.95 0.35 105.65 0.5C105.56 0.68 104.81 0.65 104.31 0.65C102.69 0.65 101.04 0.61 99.38 0.59C98.63 0.58 97.9 0.59 97.19 0.61C96.02 0.62 94.78 0.6 93.5 0.54C91.47 0.48 89.51 0.48 87.63 0.52C87.48 0.53 87.35 0.55 87.23 0.57C87.24 0.59 87.26 0.67 87.31 0.69C87.36 0.71 87.43 0.73 87.5 0.74C87.58 0.76 87.66 0.77 87.74 0.78C88.47 0.88 89.27 1 89.97 1C90 1 90.11 1.02 90.14 1.02C91.7 1.25 92.99 1.18 94.22 1.19C96.25 1.26 98.21 1.28 100.08 1.23C100.36 1.23 100.66 1.23 100.97 1.26C102.92 1.33 104.74 1.31 106.36 1.18C107.02 1.15 107.64 1.09 108.35 1.07C108.79 1.06 109.18 1.02 109.48 0.95C109.79 0.89 110.01 0.8 110.13 0.69C110.43 0.74 110.73 0.78 111.04 0.82C111.22 0.84 111.39 0.84 111.53 0.83C111.66 0.81 111.74 0.78 111.76 0.74C111.82 0.61 111.41 0.56 111.05 0.52C111.27 0.49 111.51 0.47 111.78 0.46C113.29 0.4 114.91 0.4 116.6 0.46C117.91 0.54 118.96 0.43 120.34 0.56C120.5 0.58 120.64 0.54 120.79 0.53C121.2 0.47 121.69 0.45 122.24 0.46C122.79 0.48 123.38 0.54 123.95 0.62C124.68 0.34 126.21 0.62 127.35 0.62C127.7 0.75 127.29 0.74 127.28 0.78C127.26 0.82 127.28 0.78 127.14 0.76C125.98 0.98 124.41 1.05 122.65 0.97C122.32 0.98 122.01 0.99 121.72 1.02C121.27 1.05 120.77 1.06 120.24 1.04C119.65 1.03 119.12 1.05 118.65 1.1C118.38 1.11 118.15 1.13 117.99 1.18C117.82 1.22 117.72 1.28 117.7 1.35C117.87 1.4 118.07 1.45 118.27 1.49C119.36 1.64 120.44 1.69 121.32 1.63C122.84 1.52 124.64 1.56 126.26 1.5C127.35 1.47 128.51 1.47 129.71 1.52C129.86 1.55 129.96 1.64 130.11 1.66C130.05 1.63 129.98 1.57 129.88 1.55L129.52 1.5C129.76 1.48 130 1.43 130.25 1.45C130.78 1.49 131.29 1.5 131.75 1.48C132.21 1.46 132.61 1.42 132.92 1.34C133.47 1.24 134.14 1.19 134.91 1.19C135.49 1.16 136.06 1.13 136.6 1.09C136.6 1.09 136.64 1.01 136.9 0.97C136.66 0.92 136.41 0.89 136.16 0.86C135.07 0.81 133.98 0.76 132.91 0.73C132.51 0.74 132.14 0.75 131.8 0.78C130.85 0.83 129.79 0.81 128.68 0.74C128.68 0.74 128.46 0.7 128.35 0.69C128.67 0.51 129.74 0.66 130.19 0.54C130.45 0.54 130.92 0.54 130.91 0.51C130.87 0.47 130.87 0.43 130.9 0.4C130.93 0.37 130.99 0.34 131.08 0.32C131.17 0.31 131.28 0.29 131.41 0.29C131.54 0.29 131.69 0.3 131.83 0.31C133.06 0.38 134.21 0.39 135.23 0.32C135.62 0.32 136.05 0.34 136.43 0.34C136.67 0.34 136.88 0.33 137.06 0.31C138 0.16 139.24 0.12 140.61 0.21C141.27 0.24 141.89 0.23 142.44 0.19C142.83 0.17 142.99 0.27 143.26 0.31L144.43 0.38L142.91 0.52C143.22 0.79 143.47 0.87 144 0.88C144.76 0.89 145.51 0.88 146.23 0.87C146.77 0.85 147.22 0.79 147.93 0.88C148.06 0.89 148.18 0.89 148.28 0.88C149.14 0.78 150.16 0.73 151.28 0.76C151.88 0.58 152.86 0.73 153.77 0.84C154.07 0.71 153.54 0.66 153.22 0.59C153.99 0.58 154.77 0.56 155.56 0.56C155.8 0.55 156.07 0.55 156.35 0.58C156.63 0.6 156.92 0.64 157.19 0.7C157.32 0.73 157.48 0.76 157.63 0.77C157.78 0.78 157.92 0.77 158.01 0.75C158.43 0.69 159.08 0.73 159.43 0.62C159.55 0.6 159.73 0.59 159.92 0.61C160.11 0.62 160.31 0.65 160.48 0.69C160.29 0.71 160.12 0.74 159.97 0.77C159.45 0.88 159.63 1.05 160.27 1.28C161.29 1.24 162.32 1.22 163.27 1.16C163.8 1.11 164.44 1.11 165.12 1.16C165.81 1.21 166.51 1.31 167.14 1.45C167.37 1.5 167.64 1.54 167.88 1.55C168.13 1.56 168.34 1.54 168.47 1.5C168.55 1.46 168.58 1.4 168.55 1.34L167.89 1.25L168.88 1.15C169.39 1.14 169.92 1.14 170.39 1.13C171.1 1.08 171.89 1.09 172.74 1.13C173.52 1.19 174.29 1.22 175.03 1.24C175.76 1.26 176.29 1.14 176.98 1.11C177.51 1.08 178.08 1.09 178.68 1.12C179.72 1.17 180.68 1.15 181.47 1.06C182.36 1.44 182.81 1.5 183.66 1.37L184.06 1.33L184.17 1.42L184.48 1.39C185.05 1.36 185.62 1.34 186.22 1.32C187.04 1.34 187.93 1.42 188.8 1.55C188.96 1.58 189.18 1.66 189.32 1.73C189.46 1.8 189.77 2.01 189.99 2.15C189.73 2.25 189.44 2.36 189.23 2.48C189.26 2.5 189.3 2.6 189.36 2.62C189.42 2.65 189.5 2.67 189.59 2.69C189.68 2.71 189.77 2.73 189.87 2.73C190.05 2.75 190.23 2.77 190.41 2.77C191.26 2.77 192.08 2.74 192.85 2.69C193.14 2.64 193.53 2.63 193.95 2.66C194.38 2.69 194.83 2.75 195.22 2.84C196.23 2.76 197.41 2.76 198.66 2.83C200 2.74 201.6 2.83 202.85 2.67C202.82 2.74 202.94 2.85 203.12 2.9C203.39 2.99 203.71 3.08 204.05 3.15L206.67 3.25C206.76 3.32 206.88 3.4 207.02 3.48C207.12 3.54 207.29 3.59 207.5 3.64C207.7 3.68 207.94 3.7 208.14 3.71C208.66 3.72 209.1 3.66 209.72 3.77C208.75 3.91 207.45 3.92 206.06 3.8C204.75 3.71 203.49 3.68 202.32 3.71C201.94 3.71 201.43 3.73 201.3 3.8C201.02 4 200.33 3.99 199.51 3.97C198.88 3.94 198.29 3.96 197.81 4.02C197.32 4.07 196.95 4.17 196.73 4.3C196.67 4.42 196.79 4.52 197.35 4.58L199.67 4.82C200.01 4.77 200.34 4.72 200.65 4.67C201.18 4.59 201.82 4.56 202.53 4.58C203.24 4.59 204 4.66 204.75 4.76C205.13 4.82 205.51 4.87 205.79 4.84C206.04 4.8 206.27 4.75 206.48 4.7C206.52 4.67 206.54 4.63 206.54 4.59C206.68 4.61 206.83 4.63 206.97 4.65C208.11 4.97 209 4.94 209.82 4.84C210.04 4.81 210.21 4.77 210.43 4.73C210.66 4.69 210.74 4.65 210.94 4.66C212.54 4.73 213.03 4.36 214.39 4.34C214.46 4.33 214.5 4.31 214.51 4.28C214.42 4.25 214.27 4.14 214.15 4.12C214.04 4.11 213.92 4.1 213.81 4.1C213.19 4.06 212.64 4.09 212.25 4.17C211.97 4.2 211.68 4.23 211.38 4.26L210.05 3.75C211.37 3.77 212.61 3.75 213.76 3.68C214.02 3.64 214.44 3.68 214.79 3.68L217.37 3.68C217.91 3.67 218.37 3.58 219.1 3.76C219.1 3.76 219.58 3.78 219.72 3.75C219.85 3.72 220.44 3.55 220.79 3.43C221.19 3.46 221.74 3.53 221.99 3.49C222.44 3.42 222.82 3.32 223.14 3.21L224.69 3.33C224.68 3.46 224.62 3.59 224.5 3.71C224.37 3.82 224.37 3.96 224.49 4.1C224.61 4.24 224.85 4.39 225.19 4.53L226.69 5.28C226.94 5.33 227.2 5.36 227.45 5.37C227.7 5.37 227.92 5.36 228.07 5.33C228.74 5.22 229.49 5.14 230.16 5.03C231.01 5.15 230.78 5.38 231.39 5.57L233.38 5.85C233.67 6.15 233.97 6.43 233.03 6.55C232.84 6.57 232.96 6.69 232.78 6.74C233.5 6.95 234.29 7 235.02 7.13C235.31 7.22 235.54 7.32 235.72 7.43C235.91 7.58 236.31 7.74 236.83 7.86C237.35 7.98 237.95 8.06 238.5 8.08C239.42 8.14 240.36 8.25 241.27 8.4C241.58 8.45 241.91 8.48 242.22 8.5C242.53 8.52 242.82 8.52 243.07 8.5C243.97 8.45 244.73 8.35 245.31 8.19C245.89 8.05 246.65 7.98 247.54 7.97C249.05 8.19 249.33 8.55 250.23 8.86L248.64 8.93C248.57 9.05 248.67 9.21 248.01 9.22C247.36 9.23 247.69 9.35 247.89 9.47C247.96 9.53 248.1 9.59 248.29 9.64C248.48 9.69 248.7 9.73 248.92 9.75L250.26 9.88C250.74 9.93 251.2 9.94 251.6 9.92C252 9.9 252.32 9.85 252.52 9.76C252.76 9.68 253.08 9.63 253.46 9.6C253.96 9.52 254.36 9.42 254.67 9.3L256.57 9.43C256.66 9.31 256.93 9.22 257.33 9.18C257.73 9.14 258.24 9.15 258.78 9.2L260.06 9.28C261.48 9.37 261.8 9.33 262.24 8.98L260.56 8.42C260.82 8.26 261.07 8.11 261.32 7.97C260.9 7.78 260.35 7.61 259.7 7.46C259.1 7.31 258.48 7.16 257.85 7.01C257.16 6.86 256.43 6.74 255.57 6.58C255.43 6.52 255.21 6.42 254.94 6.33C254.66 6.24 254.37 6.15 254.08 6.06C254.14 5.93 254.2 5.82 254.1 5.67C254.63 5.71 255.18 5.78 255.69 5.88C256.2 5.98 256.67 6.1 257.04 6.24C257.1 6.27 257.18 6.29 257.26 6.31C257.35 6.33 257.44 6.34 257.54 6.35C258.47 6.43 258.91 6.6 259.35 6.83C259.65 6.94 260.04 7.04 260.47 7.1C261.29 7.22 262.09 7.38 262.88 7.51C263.12 7.55 263.37 7.59 263.62 7.62C264.44 7.69 265.26 7.81 266.05 7.96C266.31 8 266.56 8.05 266.77 8.11C266.98 8.17 267.16 8.24 267.28 8.31C267.08 8.4 266.97 8.5 266.95 8.62C266.91 8.69 267.48 8.84 267.75 8.94C268.02 9.05 267.48 9.01 267.3 9.02C266.54 9.06 266.4 9.11 266.84 9.35C266.98 9.43 267.08 9.5 267.12 9.58C267.15 9.65 267.14 9.72 267.06 9.77C266.94 10.01 266.6 10.21 266.36 10.45C266.7 10.59 267.27 10.74 267.32 10.93C267.35 10.97 267.41 11.01 267.5 11.05C267.59 11.09 267.71 11.13 267.84 11.17C268.2 11.24 268.53 11.33 268.79 11.43C269.06 11.52 269.26 11.63 269.37 11.73C269.41 11.77 269.51 11.82 269.64 11.86C269.77 11.89 269.94 11.92 270.09 11.93C270.28 11.94 270.45 11.94 270.57 11.91C270.69 11.89 270.74 11.85 270.72 11.8C270.73 11.71 270.71 11.61 270.66 11.51C270.7 11.44 270.74 11.37 270.62 11.25C271.18 11.29 271.77 11.36 272.32 11.46C272.87 11.57 273.37 11.71 273.74 11.86C274.16 12.02 274.55 12.18 275.01 12.36C274.9 12.58 274.9 12.58 275.89 12.94L281.25 13.02L282.34 13.25C283.35 13.45 283.6 13.43 284.25 13.31L284.69 13.19C285.6 13.32 286.64 13.47 287.22 13.18C287.4 13.36 287.51 13.41 287.47 13.44C287.18 13.71 286.69 13.95 286.03 14.14C285.86 14.18 285.74 14.25 285.54 14.29C284.9 14.51 284.73 14.83 285.07 15.19C285.25 15.35 285.5 15.51 285.83 15.67C285.32 15.91 284.65 16.12 283.84 16.28C283.16 16.4 282.59 16.57 282.15 16.76C281.76 16.95 281.19 17.11 280.46 17.21C280.09 17.25 279.81 17.33 279.66 17.43C279.6 17.7 279.68 17.99 279.9 18.29C279.94 18.38 280.06 18.48 280.25 18.58C280.44 18.67 280.69 18.76 281 18.84C281 18.84 281.14 18.9 281.21 18.94C281.25 19.27 281.01 19.56 280.5 19.8C280.42 19.87 280.25 19.92 280.02 19.95C279.79 19.98 279.5 19.98 279.18 19.97C278.52 19.94 277.9 19.95 277.26 19.94C276.57 19.92 275.96 19.96 275.49 20.05C275.02 20.13 274.71 20.27 274.6 20.43C274.59 20.48 274.56 20.53 274.53 20.57L275.93 21.15L274.25 21.4C274.14 21.62 274.93 21.73 275.32 21.88L275.07 21.98C274.75 22.03 274.32 21.94 273.93 21.9L273.55 21.84L273.5 21.94C273.25 22.09 272.38 21.95 272.03 22.06C271.68 22.17 271.92 22.28 272.42 22.38C272.78 22.45 273.16 22.51 273.53 22.55C273.91 22.58 274.28 22.6 274.61 22.59C274.81 22.57 274.97 22.54 275.09 22.5C275.79 22.33 276.57 22.18 277.41 22.05C278.06 21.93 278.86 21.88 279.76 21.87C280.03 21.86 280.35 21.88 280.66 21.92C280.98 21.97 281.27 22.04 281.49 22.12L281.95 22.13C281.95 22.13 282.2 22.21 282.17 22.23C281.97 22.49 282.16 22.81 282.7 23.14L282.21 23.18C281.51 23.16 281.94 23.35 281.83 23.45C281.34 23.44 280.7 23.37 280.45 23.5L280.1 23.5L280.24 23.52L280.45 23.5L281.05 23.65C280.74 23.69 280.51 23.73 280.24 23.75C280.08 23.77 279.96 23.8 279.87 23.84C279.79 23.88 279.74 23.92 279.74 23.97C279.74 24.05 279.65 24.12 279.49 24.17C279.33 24.22 279.1 24.25 278.83 24.26C278.5 24.27 278.31 24.36 278.11 24.4L278.91 24.9C278.91 24.9 278.5 24.84 278.72 24.92L279.25 24.98C279.61 25.08 279.86 25.11 280.08 25.02C280.3 24.94 280.25 25.04 280.35 25.01C280.31 25.09 280.07 25.16 279.87 25.21C279.63 25.25 279.37 25.29 279.08 25.31C279.58 25.67 279.6 25.68 278.84 25.79C278.08 25.9 278.33 26.04 277.69 26.07C277.06 26.1 277.76 26.34 278.18 26.38C278.5 26.4 278.81 26.44 279.11 26.5C279.41 26.56 279.69 26.63 279.92 26.71L279.78 26.99C279.59 26.97 279.41 26.94 279.23 26.91C278.63 26.77 278.08 26.64 277.53 26.74L277.77 26.94L275.88 26.86C275.92 27.02 276.2 27.19 276.66 27.35C276.58 27.44 276.53 27.54 276.51 27.64C276.47 27.71 276.29 27.67 276.16 27.68C275.73 27.7 275.37 27.75 275.11 27.84C274.86 27.92 274.72 28.03 274.71 28.16C274.66 28.27 275.31 28.48 275.73 28.46C276.77 28.46 277.9 28.52 279.05 28.64C279.75 28.65 279.87 28.36 281.01 28.53C281.03 28.66 280.87 28.77 280.57 28.84C280.27 28.91 279.84 28.94 279.34 28.92C279.6 29.21 281.17 29.25 281.22 29.56C280.83 29.54 280.42 29.5 280.02 29.44C279.62 29.37 279.25 29.28 278.95 29.18C278.88 29.15 278.8 29.13 278.71 29.11C278.62 29.09 278.52 29.08 278.42 29.07C278.32 29.07 278.23 29.07 278.16 29.07C278.08 29.08 278.02 29.09 277.98 29.11C278.19 29.22 278.42 29.34 278.69 29.45C278.95 29.57 279.02 29.62 279.21 29.64C280.66 29.84 281.33 30.26 282.58 30.51C282.91 30.56 282.94 30.73 282.65 30.71C282.38 30.7 282.13 30.71 281.94 30.74C281.74 30.76 281.6 30.81 281.54 30.87C281.32 30.95 281.06 31.01 280.74 31.05C282.02 31.47 283.54 31.82 285.18 32.09C285.49 32.14 285.81 32.17 286.1 32.17C287.03 32.15 288.01 32.17 289.02 32.22C289.38 32.23 289.71 32.22 290 32.19C290.95 32.12 291.69 32.22 292.35 32.53L293.46 33.01C293.41 33.1 293.22 33.19 293.06 33.32L293.93 33.58L300.73 32.81L302.04 33.39L303.99 33.32C304.14 33.34 304.29 33.36 304.43 33.38C304.81 33.56 305.11 33.72 305.52 33.88C305.94 34.05 306.7 34.05 307.22 34.24C307.74 34.44 308.27 34.43 308.92 34.54C308.97 34.69 308.9 34.83 308.7 34.95C308.63 35.09 308.29 35.18 308.23 35.31C308.23 35.43 308.1 35.55 307.85 35.63C307.6 35.71 307.24 35.77 306.8 35.79C305.57 36.09 304.09 36.31 302.41 36.46C302.26 36.47 302.14 36.49 302.05 36.52C301.96 36.55 301.9 36.59 301.88 36.63C301.87 36.75 301.76 36.86 301.53 36.95C301.31 37.04 300.99 37.1 300.59 37.13C300.49 37.14 300.41 37.16 300.36 37.18C300.21 37.2 300.1 37.24 300.04 37.28C299.98 37.32 299.97 37.37 300.01 37.43C300.06 37.48 300.16 37.54 300.3 37.6C300.44 37.65 300.61 37.7 300.81 37.74C301.1 37.8 301.39 37.86 301.69 37.92C301.67 37.96 301.37 37.97 301.41 38C301.52 38.11 301.54 38.21 301.47 38.3C301.4 38.39 301.24 38.46 301 38.52L302.56 39.37C303.53 39.48 304.48 39.66 305.22 39.9C305.22 39.95 305.17 39.98 305.09 40.01C305 40.03 304.88 40.05 304.73 40.05C304.34 40.08 303.96 40.12 303.54 40.15C303.28 40.17 303.06 40.21 302.89 40.26C302.73 40.32 302.63 40.38 302.59 40.46L303.51 40.77C303.2 40.86 302.98 40.9 302.77 40.95C302.88 41.05 303.07 41.16 303.32 41.26C303.58 41.35 303.89 41.44 304.25 41.51C304.34 41.53 304.44 41.54 304.53 41.54C304.62 41.55 304.71 41.55 304.79 41.54C305.53 41.42 306.38 41.6 307.2 41.77C308.02 41.94 308.47 42.05 309.07 42.18L310.25 42.18C310.54 42.24 310.8 42.32 311.01 42.4C311.22 42.49 311.37 42.57 311.44 42.66C311.37 42.8 310.82 42.74 310.48 42.76C309.69 42.86 308.65 42.86 307.54 42.76C307.27 42.73 306.98 42.77 306.71 42.78C306.13 42.81 305.57 42.85 305.03 42.9C304.68 42.94 304.35 42.99 304.04 43.05C303.95 43.23 305.22 43.34 304.49 43.44C304.73 43.48 304.82 43.53 304.95 43.51C305.77 43.61 306.57 43.65 307.27 43.63C308.62 43.58 310.15 43.63 311.72 43.77C313.42 43.93 315.06 43.97 316.5 43.91C317.05 43.89 317.66 43.92 318.28 43.98C319.02 44.07 319.75 44.12 320.44 44.13C320.67 44.13 320.92 44.14 321.17 44.17C321.43 44.2 321.68 44.24 321.91 44.29C321.89 44.34 321.66 44.38 321.71 44.4C322.4 44.72 322.67 45.06 323.74 45.37C324.48 45.48 325.32 45.6 325.82 45.43C326.32 45.26 326.15 45.13 325.21 44.74C325.42 44.73 325.67 44.74 325.92 44.78C326.17 44.81 326.4 44.87 326.58 44.93L327.4 45.22L328.14 45.5C328.06 45.65 328 45.76 327.94 45.89C327.84 46.02 327.93 46.17 328.18 46.33C328.34 46.41 328.47 46.5 328.58 46.58C329.03 46.92 329.15 47.25 328.91 47.53C328.48 47.94 327.88 48.31 327.13 48.66C326.34 48.99 325.9 49.4 325.24 49.76C324.91 49.93 324.51 50.08 324.04 50.21C323.16 50.51 322.19 50.79 321.3 51.09C320.41 51.39 319.42 51.61 318.43 51.86C316.98 52.17 315.41 52.44 313.73 52.67C312.69 52.87 311.62 53.06 310.66 53.28C309.52 53.53 308.19 53.72 306.69 53.85C305.38 53.99 304.19 54.18 303.17 54.42C303.06 54.44 302.98 54.47 302.92 54.51C302.72 54.74 302.2 54.91 301.44 54.99C301.48 55.05 301.53 55.12 301.6 55.18C301.7 55.26 301.72 55.34 301.65 55.4C301.58 55.46 301.43 55.51 301.22 55.53C300.61 55.6 300.1 55.7 299.71 55.84C299.57 55.87 299.48 55.92 299.45 55.98C299.42 56.04 299.45 56.1 299.54 56.17C299.61 56.24 299.62 56.31 299.54 56.36C299.47 56.41 299.32 56.45 299.12 56.47C298.6 56.55 298.05 56.61 297.46 56.67C296.21 56.78 294.77 56.81 293.22 56.75C293.05 56.73 292.88 56.77 292.69 56.74C291.6 56.66 290.57 56.67 289.75 56.76C288.78 56.8 287.78 56.82 286.76 56.85C285.29 56.87 283.94 56.96 282.73 57.1C281.36 57.01 280.58 57.22 279.42 57.25C278.35 57.29 277.33 57.36 276.37 57.46C274.84 57.59 273.31 57.71 271.79 57.86C270.37 57.94 269.06 58.07 267.89 58.26C267.43 58.34 266.63 58.24 266.32 58.4C266 58.55 265.39 58.55 264.89 58.61L263.31 58.76C263.04 58.79 262.74 58.82 262.42 58.83C260.96 58.87 259.94 59.09 258.58 59.16L258.44 59.14C256.02 59.48 253.26 59.7 250.24 59.79C248.47 59.91 246.54 59.95 244.67 60.05C244.21 60.19 243.17 60.05 242.6 60.18C242.04 60.31 241.13 60.25 240.4 60.29C239.68 60.32 238.97 60.39 238.2 60.4C237.53 60.41 236.96 60.48 236.55 60.59C235.6 60.78 234.45 60.9 233.16 60.95C231.44 61.03 229.82 61.17 228.08 61.18C228.1 61.3 227.98 61.41 227.75 61.49C227.52 61.57 227.17 61.62 226.76 61.64C224.89 61.72 223.2 61.88 221.31 61.95L220.8 61.97L215.15 62.15C213.63 62.2 212.17 62.25 210.62 62.29C210.04 62.21 210.02 62.37 209.62 62.35C209.51 62.27 209.38 62.24 209.18 62.29L202.68 62.64C200.15 62.79 197.5 62.87 194.74 62.89C194.09 62.91 193.47 62.95 192.91 63.02C192.39 63.05 191.86 63.07 191.3 63.08C190.54 63.07 189.81 63.07 189.09 63.08C187.2 63.16 185.22 63.18 183.16 63.19C181.09 63.21 179.53 63.29 177.69 63.32C176.44 63.34 175.2 63.35 173.92 63.34C173.3 63.34 172.55 63.26 171.92 63.23C171.28 63.21 171.07 63.22 170.99 63.27C170.7 63.43 170.01 63.35 169.45 63.34C168.37 63.34 168.21 63.29 167.95 62.9L169.29 62.75C169.62 62.7 170.03 62.69 170.48 62.7C170.94 62.72 171.42 62.77 171.88 62.85C172.06 62.88 172.25 62.91 172.44 62.93C172.63 62.94 172.81 62.95 172.98 62.94C174.32 62.9 175.65 62.82 176.95 62.76L177.14 62.73L177.17 62.38C177 62.35 176.83 62.32 176.65 62.31L170.18 62.21C168.7 62.18 167.16 62.09 165.7 62.06C164.24 62.04 163.46 62.03 162.33 62C161.85 61.97 161.37 61.94 160.88 61.91C160.91 61.87 160.93 61.83 160.93 61.8C160.96 61.74 161 61.66 160.8 61.6C160.57 61.52 160.27 61.45 159.95 61.41C159.65 61.39 159.36 61.38 159.09 61.38C157.78 61.38 156.29 61.22 154.94 60.95L154.45 61.16C152.4 61.09 150.32 61.02 148.18 60.95C147.75 60.93 147.3 60.88 146.87 60.81C146.4 60.75 145.98 60.6 145.49 60.52C145.01 60.47 144.52 60.43 144.05 60.4C144.19 60.35 144.36 60.3 144.56 60.27C144.77 60.26 144.91 60.22 144.99 60.17C145.06 60.12 145.06 60.05 144.97 59.98C144.83 59.87 144.77 59.75 145.1 59.73C145.41 59.7 145.64 59.64 145.75 59.55C145.86 59.46 145.86 59.36 145.74 59.25C145.68 59.18 145.65 59.11 145.63 59.05L145.49 59.03C145.05 58.8 144.15 58.74 143.5 58.55C143.2 58.5 142.88 58.48 142.6 58.48C141.88 58.45 141.18 58.45 140.44 58.41C140.08 58.4 139.71 58.36 139.35 58.3C138.83 58.23 138.77 58.22 138.49 57.92C138.96 57.92 139.34 57.86 139.56 57.77C139.78 57.67 139.82 57.55 139.69 57.4C139.32 57.1 138.93 56.77 137.17 56.58C137.75 56.56 138.31 56.53 138.84 56.48C139 56.47 139.11 56.45 139.18 56.41C139.24 56.37 139.25 56.32 139.2 56.27C139.15 56.22 139.04 56.17 138.9 56.12C138.75 56.08 138.57 56.04 138.38 56.01C137.46 55.85 136.49 55.75 135.59 55.72C134.83 55.72 134.14 55.74 133.25 55.76L132.21 55.61C132.23 55.57 132.08 55.52 132.12 55.5C132.4 55.3 132.71 55.1 133.02 54.89C132.55 54.78 132.13 54.65 131.84 54.52C131.54 54.38 131.37 54.23 131.34 54.1C131.32 54.06 131.33 54.03 131.37 54C131.41 53.96 131.48 53.94 131.58 53.92C131.86 53.89 132.07 53.84 132.21 53.77C132.35 53.7 132.41 53.61 132.38 53.51L131.58 53.17C129.14 52.97 126.73 52.83 124.41 52.78L122.32 52.74C122.07 52.65 122.15 52.6 122.39 52.6C122.63 52.59 123.3 52.6 123.77 52.61C124.17 52.62 124.53 52.6 124.81 52.55C125.09 52.5 125.29 52.43 125.38 52.33L124.7 51.94C124.74 51.86 124.79 51.75 125.17 51.75C125.44 51.74 125.63 51.7 125.73 51.63C125.82 51.57 125.82 51.49 125.71 51.4C125.69 51.34 125.72 51.28 125.8 51.23C126.36 51.21 126.92 51.2 127.44 51.18C127.68 51.16 127.88 51.14 128.03 51.09C128.19 51.05 128.29 51 128.33 50.93C128.35 50.87 128.31 50.8 128.21 50.72C128.11 50.65 127.95 50.58 127.75 50.51C126.95 50.44 126.22 50.45 125.71 50.55C125.52 50.62 125.23 50.66 124.87 50.67C124.51 50.68 124.09 50.65 123.68 50.6C123.21 50.53 122.74 50.51 122.35 50.53C121.96 50.55 121.68 50.62 121.56 50.72C121.08 50.69 120.65 50.67 120.22 50.64C119.72 50.6 119.25 50.59 118.85 50.62C118.22 50.65 117.53 50.66 116.82 50.64C114.76 50.59 112.69 50.55 110.69 50.55C110.16 50.55 109.7 50.59 109.18 50.58C108.66 50.57 108.24 50.64 107.59 50.52C107.47 50.51 107.35 50.5 107.23 50.49C107.11 50.49 107.01 50.5 106.92 50.51C105.77 50.63 104.42 50.68 102.96 50.63C100.95 50.66 98.86 50.65 96.85 50.68C96.26 50.7 95.7 50.74 95.18 50.79C94.78 50.82 94.37 50.85 93.93 50.87C93.6 50.88 93.29 50.86 93.34 51C93.38 51.14 92.89 51.06 92.61 51.04C91.63 50.99 90.64 50.92 89.63 50.83C88.64 50.73 87.67 50.67 86.78 50.68C86.13 50.68 85.46 50.73 84.63 50.56C84.67 50.49 84.71 50.42 84.89 50.34C84.23 50.15 83.46 49.99 82.66 49.88C81.86 49.77 81.05 49.7 80.3 49.68L79.28 49.32C79.02 49.28 78.76 49.26 78.51 49.24C78.26 49.23 78.02 49.23 77.82 49.25C77.66 49.25 77.46 49.24 77.27 49.22C77.08 49.19 76.91 49.15 76.78 49.1C76.58 49.03 76.34 48.98 76.09 48.94C75.84 48.91 75.58 48.89 75.35 48.89C74.64 48.87 73.88 48.79 73.15 48.66C72.97 48.58 72.85 48.5 72.82 48.42C72.8 48.35 72.85 48.28 72.99 48.23C73.21 48.15 73.34 48.04 73.37 47.92C73.4 47.79 73.32 47.66 73.15 47.52C73.06 47.44 73.04 47.36 73.07 47.29C73.11 47.21 73.21 47.15 73.37 47.1C73.95 46.87 73.81 46.76 72.89 46.42C72.75 46.36 72.57 46.31 72.37 46.27C72.17 46.22 71.95 46.19 71.73 46.16C71.22 46.12 70.72 46.08 70.23 46.07C69.95 46.03 69.67 46.07 69.35 46.06C67.76 46 67.54 45.87 67.04 45.58L66.68 45.37C65.99 45.2 65.24 45.07 64.47 44.98C63.71 44.89 62.95 44.84 62.25 44.84C61.97 44.85 61.65 44.82 61.34 44.78C60.34 44.63 59.31 44.54 58.34 44.5C57.74 44.48 57.09 44.41 56.47 44.3C55.86 44.19 55.3 44.04 54.87 43.88C54.49 43.73 53.98 43.6 53.42 43.51C52.76 43.41 52.71 43.29 53.08 43.18C53.46 43.08 54.09 42.94 54.65 42.83C54.84 42.79 54.96 42.73 55 42.66C55.04 42.59 54.99 42.5 54.86 42.42C54.78 42.27 54.77 42.13 54.84 41.99C54.87 41.94 54.86 41.88 54.79 41.81C54.72 41.75 54.61 41.68 54.45 41.62C54.29 41.56 54.1 41.5 53.88 41.45C53.66 41.4 53.42 41.36 53.18 41.33C52.17 41.19 51.19 41.04 50.15 40.95C49.72 40.9 49.28 40.84 48.86 40.76C48.01 40.57 47.08 40.42 46.15 40.32C45.71 40.27 45.28 40.18 44.96 40.07C43.93 39.78 42.99 39.46 42.15 39.13C41.95 39.03 41.68 38.93 41.37 38.84C41.06 38.76 40.7 38.68 40.33 38.62C40.03 38.58 39.79 38.47 39.56 38.41C39.4 38.24 39.39 38.09 39.53 37.96C39.68 37.83 39.97 37.73 40.38 37.66C40.77 37.59 41.14 37.5 41.48 37.41C41.89 37.34 42.37 37.29 42.91 37.26C43.54 37.22 44.02 37.1 44.28 36.94C42.55 36.7 40.92 36.33 39.39 36.45L38.24 36.22C38.3 36.12 38.34 36.03 38.39 35.94C38.67 35.79 38.77 35.6 38.67 35.39C38.59 35.28 38.6 35.19 38.71 35.11C38.83 35.04 39.03 34.98 39.31 34.95C40.97 34.64 42.87 34.41 44.43 34.07C44.91 34 45.48 33.97 46.1 33.96C46.71 33.93 46.69 33.79 46.01 33.63C45.62 33.55 45.23 33.47 44.84 33.39C43.06 33.41 42.31 33.85 40.29 33.77L39.39 33.24C39.14 33.24 38.89 33.24 38.65 33.25L35.24 33.54C34.96 33.55 34.74 33.6 34.6 33.66C34.46 33.72 34.42 33.81 34.47 33.9C34.49 34.01 34.43 34.11 34.31 34.2C34.24 34.27 34.28 34.35 34.43 34.43C34.78 34.62 34.32 34.66 34.02 34.71C33.95 34.72 33.86 34.72 33.77 34.72C33.68 34.71 33.59 34.7 33.49 34.69C33.4 34.68 33.31 34.66 33.22 34.64C33.14 34.62 33.07 34.59 33.01 34.57C32.51 34.39 32.08 34.21 31.59 34.02C31.96 33.81 31.56 33.5 32.13 33.31C32.19 33.28 32.22 33.23 32.21 33.19C32.2 33.14 32.15 33.09 32.07 33.04C31.85 32.9 31.75 32.77 31.78 32.66C31.81 32.54 31.96 32.44 32.23 32.37C31.55 32.15 31.78 31.87 31.53 31.62L30.87 31.47C29.23 31.12 29.23 31.12 27.8 31.17C27.52 31.02 27.89 30.99 28.16 30.97L30.48 30.76C31.99 30.61 33.54 30.5 35.23 30.43C36.91 30.35 38.79 30.17 40.54 30.04C40.63 30.03 40.69 30.01 40.74 29.99C40.67 29.96 40.63 29.84 40.52 29.82C40.42 29.79 40.3 29.77 40.18 29.75C39.64 29.67 39.07 29.63 38.49 29.57L37.4 29.46L37.07 29.29C36.86 29.19 36.72 29.07 36.43 29C36.19 28.95 35.93 28.91 35.68 28.89C35.42 28.88 35.19 28.87 34.99 28.89C34.43 28.94 33.93 29 33.41 29.05C32.88 29.11 32.59 29.16 32.13 29.19C31.2 29.22 30.31 29.27 29.45 29.33C28.72 29.44 28.04 29.58 27.42 29.73C27.04 29.79 26.68 29.86 26.03 29.8C25.72 29.75 25.46 29.67 25.29 29.58C25.12 29.49 25.05 29.41 25.1 29.33C25.13 29.27 25.24 29.23 25.39 29.2C25.55 29.16 25.75 29.15 25.98 29.15C26.64 29.13 27.24 29.08 27.79 29.01C28.55 28.88 29.47 28.82 30.5 28.82C30.85 28.82 31.09 28.76 31.39 28.74C31.7 28.71 31.96 28.66 32.3 28.69C33.35 28.76 33.87 28.61 34.51 28.51C34.73 28.46 34.86 28.4 34.91 28.32C34.95 28.23 34.89 28.14 34.75 28.05C34.47 27.85 34.12 27.66 33.72 27.48C33.51 27.39 33.24 27.3 32.93 27.23C32.62 27.15 32.28 27.1 31.93 27.06C31.73 26.94 31.63 26.83 31.63 26.72C31.64 26.61 31.75 26.52 31.95 26.45C32.47 26.29 32.94 26.13 34.08 26.19C34.62 26.21 35.13 26.21 35.59 26.18C36.6 26.13 37.77 26.17 38.97 26.29C39.28 26.32 39.59 26.33 39.88 26.34C41.97 26.38 43.97 26.39 45.97 26.38C47.03 26.37 48.1 26.34 49.21 26.36C51.8 26.4 54.17 26.31 56.68 26.29C58 26.28 59.18 26.19 60.16 26.03C60.35 25.98 60.52 25.93 60.66 25.86C60.02 25.72 59.32 25.61 58.62 25.54C57.92 25.47 57.24 25.45 56.65 25.48C56.33 25.54 55.91 25.55 55.45 25.53C54.99 25.51 54.5 25.46 54.04 25.37L55.4 25.29C56.3 25.25 57.23 25.22 58.11 25.17C59.51 25.08 60.8 24.95 62.25 24.89C63.42 24.83 64.46 24.71 65.36 24.54C66.01 24.42 66.75 24.33 67.56 24.27C68.13 24.24 68.13 24.24 68.51 24.01C68.23 23.87 67.86 23.86 67.5 23.87C65.38 23.82 63.36 23.84 61.47 23.94C60.52 23.97 59.68 24.04 58.97 24.17C58.8 24.22 58.37 24.21 58.02 24.2C56.93 24.2 55.88 24.23 54.89 24.28C53.53 24.37 52.01 24.39 50.4 24.33C50.1 24.22 50.46 24.23 50.48 24.19C51.73 24.09 52.96 23.99 54.24 23.9C54.59 23.87 54.96 23.85 55.35 23.84C56.81 23.85 58.04 23.72 58.86 23.48C58.91 23.39 59.43 23.39 59.67 23.33C59.79 23.27 59.87 23.21 59.91 23.15C59.58 22.99 59.2 23 58.9 23C58.04 23.04 57.21 23.09 56.41 23.16C55.67 23.22 54.86 23.25 53.99 23.24C53.34 23.23 52.79 23.28 52.14 23.28C51.79 23.27 51.43 23.25 51.07 23.21C51.48 23.09 52.05 23.01 52.72 22.97C53.23 22.89 53.86 22.86 53.95 22.68C53.72 22.56 53.46 22.56 53.24 22.58C52.8 22.59 52.37 22.6 51.95 22.63C51.08 22.68 50.13 22.7 49.13 22.69C48.61 22.68 48.11 22.7 47.64 22.73C46.59 22.78 45.58 22.86 44.61 22.91C42.64 22.98 40.83 23.12 38.93 23.21C38.51 23.24 38.13 23.29 37.58 23.22C37.03 23.15 37 23.14 36.94 23.09C36.79 23.01 36.75 22.92 36.82 22.86C36.94 22.8 37.15 22.76 37.44 22.75C39.14 22.62 40.75 22.46 42.27 22.26C42.94 22.21 43.53 22.13 44.01 22.02C44.4 21.94 44.85 21.88 45.36 21.85C46.1 21.79 46.87 21.73 47.67 21.69C48.05 21.67 48.36 21.63 48.61 21.56C48.86 21.5 49.02 21.41 49.1 21.31L48.15 21C47.99 20.99 47.84 20.98 47.69 20.97L39.55 21.37L38.75 21.4C37.87 21.4 37.66 21.35 36.84 20.99C38.76 20.86 40.28 20.57 41.25 20.14C41.02 20.1 40.79 20.07 40.56 20.04C39.04 19.98 37.6 19.98 36.3 20.05C35.52 20.07 34.73 20.08 33.93 20.09C34.17 19.9 35.07 19.93 35.65 19.88C37.05 19.79 38.29 19.62 39.33 19.4C39.7 19.31 40.14 19.25 40.66 19.22C41.17 19.21 41.61 19.15 41.92 19.06C42.23 18.97 42.42 18.85 42.45 18.7C42.51 18.57 42.62 18.45 42.79 18.34C42.52 18.19 42.08 18.05 41.56 17.94C41.04 17.84 40.47 17.78 39.96 17.77C38.88 17.73 37.76 17.65 36.62 17.53C36.06 17.47 35.5 17.44 34.99 17.44C34.54 17.45 34.04 17.4 33.55 17.32C33.06 17.24 32.61 17.13 32.28 17C31.84 16.84 31.42 16.68 31.01 16.52C30.59 16.35 30.11 16.15 29.62 15.95C29.19 15.92 28.76 15.91 28.35 15.91C28.03 15.92 27.66 15.91 27.28 15.86C26.9 15.82 26.53 15.75 26.21 15.67C26.41 15.57 26.63 15.48 26.86 15.37C26.56 15.24 26.35 15.1 26.23 14.96C26.11 14.83 26.09 14.7 26.18 14.59C26.23 14.48 25.91 14.32 25.8 14.19C25.66 14.07 25.63 13.97 25.74 13.88C25.84 13.79 26.06 13.72 26.38 13.69C26.77 13.63 27.08 13.55 27.32 13.45C27.4 13.43 27.44 13.39 27.44 13.35C27.44 13.31 27.4 13.27 27.32 13.22C27.25 13.18 27.13 13.14 27 13.1C26.86 13.06 26.71 13.03 26.55 13.01C26.06 12.95 25.56 12.92 25.1 12.91C24.31 12.89 23.55 12.89 22.82 12.89C22.02 12.9 21.12 12.84 20.24 12.72C19.44 12.6 18.73 12.5 18.36 12.26C17.98 12.02 17.35 12.04 16.88 11.87C17.16 11.7 17.65 11.58 18.3 11.52C18.72 11.49 19.07 11.43 19.34 11.35C19.6 11.27 19.77 11.17 19.83 11.05L18.4 10.57C17.25 10.36 16.59 10.56 15.33 10.49L16.65 10.27C16.54 9.9 16.38 9.76 15.06 9.58L14.32 9.47L13.15 9.36C12.97 9.28 12.84 9.2 12.79 9.13C12.73 9.06 12.75 8.99 12.84 8.93C13.02 8.84 13.08 8.72 13.02 8.59C12.91 8.51 12.9 8.43 13 8.37C13.1 8.31 13.3 8.27 13.57 8.26C13.78 8.25 13.8 8.15 13.92 8.09C14.04 8.01 14.24 7.94 14.5 7.9C14.77 7.86 15.09 7.84 15.46 7.84C16.53 7.82 17.54 7.78 18.47 7.69L18.31 7.67C19.27 7.71 20.17 7.69 20.97 7.63C21.77 7.56 22.79 7.58 23.64 7.53C24.33 7.52 24.86 7.43 25.11 7.28C25.36 7.14 26.24 7.15 26.91 7.17C27.3 7.18 27.69 7.18 28.05 7.16C28.55 7.12 29.16 7.14 29.79 7.21C29.98 7.24 30.17 7.25 30.33 7.24C31.95 7.25 33.56 7.26 35.15 7.24C35.52 7.22 35.95 7.24 36.39 7.29C36.58 7.31 36.76 7.32 36.91 7.31C39.43 7.2 42.27 7.29 44.74 7.16C45.04 7.13 45.37 7.12 45.73 7.13C46.52 7.16 47.21 7.11 47.7 7C47.96 6.94 48.3 6.91 48.68 6.9C49.07 6.88 49.5 6.9 49.94 6.94C50.67 6.98 51.36 6.98 51.92 6.92C53 6.85 54.14 6.81 55.33 6.79C55.69 6.79 56.01 6.77 56.27 6.72C56.52 6.67 56.7 6.6 56.79 6.52C56.51 6.38 56.19 6.37 55.89 6.39C54.72 6.38 53.55 6.36 52.4 6.37C51.37 6.35 50.39 6.36 49.45 6.39C48.99 6.42 48.42 6.39 47.86 6.3C47.17 6.19 46.46 6.14 45.87 6.17C45.43 6.18 44.97 6.18 44.49 6.16C44.18 6.14 43.87 6.1 43.59 6.04C43.47 6.01 43.35 5.99 43.22 5.97C43.1 5.96 42.97 5.95 42.85 5.94C42.73 5.94 42.63 5.95 42.54 5.96C42.45 5.97 42.38 5.99 42.33 6.02C41.88 6.22 40.89 6.14 40.04 6.14C38.78 5.83 37.82 6.05 36.64 5.88C36.55 5.87 36.46 5.87 36.37 5.87C36.29 5.87 36.21 5.87 36.14 5.88C33.83 6.04 31.15 6 28.72 6.09C28.46 6.1 28.15 6.09 27.83 6.05C25.77 5.81 23.78 5.78 22.25 5.94C22.06 5.96 21.85 5.96 21.62 5.96C20.59 5.87 19.59 5.84 18.72 5.89C17.36 5.91 16.05 5.94 14.67 5.94C13.72 5.92 12.88 5.98 12.24 6.1C12.21 6.15 11.79 6.11 11.47 6.11C11.29 6 11.14 5.91 10.95 5.81C10.78 5.69 10.54 5.57 10.22 5.46C9.9 5.35 9.52 5.25 9.11 5.17C8.39 5.07 8.33 4.9 8.84 4.83C10.15 4.59 11.79 4.48 13.63 4.48C15.17 4.46 16.74 4.43 18.3 4.42C19.21 4.42 20.17 4.44 21.06 4.43C21.36 4.44 21.66 4.45 21.97 4.48C22.35 4.51 22.73 4.53 23.07 4.52C24.16 4.47 25.38 4.47 26.67 4.54C27.14 4.55 27.59 4.55 28.02 4.54C29.04 4.49 30.14 4.49 31.29 4.53C32 4.55 32.7 4.55 33.37 4.54C33.6 4.54 33.8 4.51 34.02 4.52C36 4.73 37.43 4.52 39.22 4.58C40.1 4.59 40.93 4.57 41.72 4.53C43.25 4.5 44.82 4.49 46.42 4.51C48.55 4.55 50.52 4.48 52.55 4.48C52.95 4.48 53.34 4.47 53.71 4.45C55.52 4.35 57.48 4.32 59.54 4.37C60.01 4.38 60.43 4.35 60.78 4.3C61.13 4.25 61.4 4.17 61.57 4.07C61.65 4.01 61.61 3.92 61.46 3.84C61.21 3.73 60.93 3.62 60.62 3.52L49.14 3.4C48.66 3.39 48.19 3.39 47.73 3.4C46.39 3.42 45.01 3.42 43.59 3.4C42.19 3.38 40.85 3.41 39.49 3.43C39.09 3.43 38.68 3.43 38.26 3.42C35.44 3.33 32.68 3.29 30 3.32C28.88 3.33 27.66 3.29 26.52 3.29C25.37 3.3 23.8 3.32 22.44 3.34L18.23 3.43C17.4 3.44 16.59 3.47 15.78 3.49C14.84 3.04 14.51 2.94 13.22 2.76C12.78 2.7 12.33 2.66 11.92 2.66C10.62 2.72 9.01 2.6 7.78 2.65C7.04 2.65 6.41 2.72 5.96 2.84C5.56 2.93 5.11 3.01 4.6 3.06C3.27 2.69 3.16 2.44 4.2 2.32C4.47 2.29 4.86 2.29 5.06 2.23C5.18 2.2 5.34 2.18 5.52 2.17C5.71 2.17 5.92 2.17 6.14 2.19C6.83 2.25 7.47 2.25 8.01 2.2C8.53 2.14 9.15 2.13 9.82 2.17C10.32 2.24 10.76 2.12 11.19 2.08C11.63 2.03 11.98 1.97 12.65 2.04C12.77 2.06 12.89 2.07 13 2.07C13.12 2.07 13.22 2.06 13.29 2.05C14.02 1.97 14.88 1.96 15.81 2.01C17.23 2.05 18.57 2.03 19.78 1.94C20.51 1.87 21.13 1.76 21.62 1.62C21.76 1.57 21.96 1.54 22.2 1.53C23.41 1.53 24.72 1.61 26.04 1.76C26.54 1.82 27.04 1.87 27.53 1.9C28.53 1.96 29.51 1.99 30.42 1.98C31.75 1.96 33.13 1.97 34.55 2C35.43 2.02 36.28 2.02 37.09 1.99C37.91 1.97 38.8 1.98 39.71 2.02C40.63 2.06 41.43 2.01 42.04 1.9C42.24 1.84 42.41 1.77 42.53 1.69C41.2 1.47 39.83 1.38 38.67 1.42C38.23 1.41 37.87 1.44 37.41 1.35C37.32 1.37 37.17 1.41 37.01 1.41C36.85 1.4 36.68 1.37 36.54 1.34C36.6 1.21 36.66 1.1 36.71 1.02C37.58 1.01 38.44 0.99 39.26 0.96C39.96 0.92 40.88 1.12 41.49 1.02C42.65 1.1 43.41 0.95 44.46 0.97C45.51 0.98 46.65 1.09 47.7 1.11C48.62 1.12 49.51 1.1 50.37 1.07C50.66 1.05 51 1.05 51.37 1.06C51.88 1.1 52.36 1.1 52.75 1.06C53.14 1.02 53.42 0.94 53.57 0.84C53.44 0.74 53.27 0.62 53.07 0.5C53.46 0.38 54.05 0.32 54.74 0.33L55.72 0.31C55.98 0.31 56.18 0.27 56.28 0.22C56.38 0.16 56.37 0.09 56.26 0.01C54.42 -0.37 54.36 -0.41 52.97 -0.12L51.2 -0.21ZM75.67 0.42L75.53 0.4L75.67 0.42ZM298.97 39.49L299.28 39.52L298.97 39.49ZM256.78 9.72C256.35 9.65 255.92 9.59 255.49 9.53C255.38 9.53 255.27 9.53 255.18 9.53C255.09 9.54 255.02 9.56 254.97 9.58C254.93 9.65 255.17 9.7 255.39 9.73C255.67 9.78 255.95 9.8 256.21 9.8C256.47 9.81 256.6 9.75 256.78 9.72L257.13 9.73L256.78 9.72ZM34.13 32.8C34.41 32.81 34.68 32.8 34.92 32.79C36.02 32.71 37.08 32.59 38.21 32.51C39.64 32.34 41.27 32.25 43.05 32.24C43.74 32.24 44.33 32.18 44.75 32.07C45 32.01 45.32 31.97 45.69 31.96L50.41 31.7C50.7 31.65 50.96 31.6 51.17 31.53C50.76 31.48 50.48 31.44 50.32 31.41C49.97 31.41 49.68 31.44 49.46 31.49C49.22 31.57 48.82 31.61 48.34 31.6C47.86 31.59 47.39 31.59 46.93 31.6C46.07 31.62 45.2 31.65 44.33 31.68C43.98 31.91 43 31.83 42.15 31.82L41.49 31.85C39.33 32 37.27 32.2 35.31 32.44C34.93 32.48 34.6 32.54 34.34 32.62C34.23 32.67 34.2 32.74 34.23 32.82L34.13 32.8ZM128.75 51.76C129.27 51.77 129.81 51.79 130.37 51.82C130.79 51.86 131.21 51.88 131.6 51.88C133.79 51.88 136.07 51.95 138.4 52.08C138.71 52.1 139 52.11 139.27 52.1L141.19 52.02C141.8 51.98 141.81 51.95 141.39 51.63C141.03 51.57 140.67 51.52 140.3 51.47C140.08 51.44 139.73 51.39 139.64 51.44C139.12 51.6 138.19 51.53 137.4 51.51C135.13 51.47 132.79 51.4 130.49 51.35C130.01 51.34 129.54 51.33 129.09 51.34C128.81 51.34 128.55 51.36 128.33 51.38C128.27 51.39 128.21 51.4 128.17 51.41C128.16 51.43 128.09 51.49 128.12 51.51C128.14 51.54 128.18 51.56 128.23 51.58C128.41 51.65 128.63 51.72 128.86 51.78L128.75 51.76ZM148.59 2.45L150.84 2.37C151.11 2.36 151.34 2.31 151.63 2.32C153.16 2.35 154.58 2.3 155.84 2.18C156.27 2.14 156.76 2.12 157.3 2.13C158.96 2.17 160.53 2.14 161.96 2.05C162.89 2.02 163.75 1.95 164.55 1.87C164.61 1.85 164.65 1.82 164.67 1.8C164.66 1.78 164.6 1.66 164.56 1.64C164.52 1.62 164.46 1.6 164.4 1.58C164.33 1.56 164.25 1.55 164.18 1.53C164.1 1.52 164.02 1.51 163.94 1.51C162.95 1.43 162 1.42 161.17 1.47C160.41 1.52 159.59 1.55 158.72 1.55C157.89 1.56 157.32 1.7 156.3 1.62C155.87 1.6 155.49 1.62 155.22 1.68C154.68 1.77 153.93 1.79 153.1 1.73C152.61 1.7 152.14 1.7 151.7 1.71C150.65 1.76 149.64 1.84 148.66 1.91C148.36 1.93 148.03 1.94 147.68 1.94L142.81 1.93C141.64 1.92 140.47 1.9 139.32 1.91C138.38 1.9 137.51 1.93 136.72 2C135.89 2.07 134.98 2.11 134.02 2.12C132.52 2.18 131.03 2.22 129.4 2.25C128.36 2.27 127.29 2.29 126.21 2.28C125.66 2.26 125.19 2.3 124.89 2.39C124.71 2.46 124.29 2.41 123.94 2.4C122.09 2.29 120.35 2.29 118.83 2.4C118.64 2.42 118.43 2.43 118.2 2.43C116.75 2.46 115.24 2.47 113.85 2.5C113.48 2.51 113.13 2.53 112.81 2.57C112.84 2.61 112.94 2.66 113.08 2.7C113.21 2.74 113.39 2.77 113.55 2.78C114.86 2.89 116.13 2.93 117.31 2.91C119.27 2.85 121.31 2.85 123.43 2.89C125.07 2.95 126.57 2.9 127.82 2.75C128.8 2.64 130.06 2.65 131.39 2.78C131.96 2.84 132.51 2.86 132.98 2.83C133.42 2.8 133.93 2.79 134.48 2.82C135.63 2.87 136.74 2.88 137.78 2.85C138.81 2.8 139.76 2.71 140.81 2.67C141.86 2.63 143.46 2.61 144.75 2.54C146.05 2.48 147.33 2.45 148.59 2.45ZM55.83 0.61C55.94 0.81 56.35 0.92 56.8 0.97C58.34 1.17 59.87 1.23 61.13 1.16C61.82 1.07 62.73 1.08 63.67 1.18C64.78 1.29 65.82 1.29 66.61 1.18C66.81 1.16 66.96 1.13 67.05 1.08C67.07 1.04 67.1 0.97 67.11 0.96C67.03 0.93 66.93 0.9 66.82 0.88C66.71 0.85 66.59 0.84 66.47 0.83L61.34 0.7L60.44 0.67C58.81 0.58 57.25 0.56 55.83 0.61ZM65.76 3.52C66.55 3.83 66.55 3.82 66.96 3.88C68.93 4.15 70.9 4.27 72.65 4.24C73.04 4.23 73.37 4.2 73.62 4.13C73.74 4.12 73.82 4.1 73.84 4.06C73.86 4.02 73.82 3.98 73.72 3.93L73.09 3.72C71.94 3.65 70.8 3.59 69.68 3.56C68.38 3.52 67.22 3.54 65.87 3.54L65.76 3.52ZM128.75 50.34C129.47 50.77 129.47 50.76 130.72 50.85C131.59 50.91 132.43 50.94 133.23 50.94C134.2 50.94 135.2 50.94 136.17 50.94C136.4 50.95 136.6 50.93 136.73 50.9C136.86 50.86 136.91 50.8 136.86 50.74C136.74 50.67 136.54 50.6 136.31 50.55C136.07 50.5 135.81 50.47 135.56 50.46L135.03 50.46C134.39 50.45 133.73 50.43 133.11 50.43C132.7 50.46 132.24 50.46 131.75 50.42C131.25 50.39 130.75 50.32 130.27 50.23L128.75 50.34ZM69.93 0.91C70.12 0.98 70.34 1.05 70.59 1.11C71.53 1.28 72.53 1.37 73.4 1.35C73.81 1.36 74.19 1.31 74.6 1.36C75.34 1.43 76.07 1.45 76.73 1.44C76.73 1.44 76.92 1.42 76.98 1.42L77.12 1.13C76.81 1.08 76.49 1.03 76.17 1C75.08 0.95 74 0.92 72.94 0.88C71.87 0.85 71.5 0.83 70.8 0.82C70.48 0.84 70.19 0.87 69.93 0.91ZM44 36.17L45.39 36.72C45.85 36.76 46.28 36.76 46.62 36.72C46.96 36.68 47.19 36.6 47.27 36.5C47.39 36.45 47.4 36.37 47.31 36.3C47.22 36.22 47.03 36.14 46.77 36.08C46.53 36.01 46.25 35.94 45.96 35.89C45.66 35.84 45.35 35.8 45.05 35.78L44 36.17ZM56.1 33.08C55.17 33 54.28 32.98 53.49 33.02C52.99 33.08 52.32 33.08 51.62 33C50.34 32.85 49.1 32.83 48.15 32.94C48.15 32.94 48.11 33.01 47.96 33.04C47.8 33.06 48.42 33.11 48.56 33.13C49.57 33.16 50.58 33.18 51.47 33.18C52.01 33.17 52.59 33.18 53.19 33.2C54.01 33.24 54.79 33.24 55.51 33.21C55.51 33.21 55.78 33.18 56.1 33.08ZM158.03 1.22C157.6 1.13 157.12 1.05 156.63 1C156.15 0.95 155.68 0.92 155.25 0.93C154.92 0.93 154.65 0.96 154.49 1.03C154.33 1.09 154.27 1.17 154.34 1.27C154.67 1.32 155.11 1.38 155.35 1.41C156.22 1.39 156.96 1.32 158.03 1.22ZM241.19 8.62C240.83 8.54 240.44 8.48 240.06 8.45C239.67 8.42 239.31 8.42 239.01 8.45C238.86 8.46 238.96 8.56 238.93 8.61C238.97 8.63 239.12 8.74 239.18 8.75C239.25 8.76 239.31 8.77 239.37 8.77C239.76 8.8 240.13 8.81 240.44 8.79C240.76 8.76 241.02 8.69 241.19 8.62ZM246.72 9.75C246.66 9.7 246.55 9.65 246.39 9.6C246.24 9.56 246.05 9.53 245.87 9.52C245.54 9.52 245.24 9.54 244.98 9.58C244.7 9.6 244.9 9.75 245.27 9.83C245.42 9.86 245.59 9.89 245.76 9.9C245.92 9.91 246.08 9.92 246.22 9.91C246.36 9.9 246.48 9.89 246.56 9.86C246.65 9.84 246.71 9.79 246.72 9.75ZM84.46 1.16C83.63 0.99 82.98 1.05 82.28 0.99C81.58 0.93 81.4 0.93 81.49 1.04C81.58 1.16 82.06 1.12 82.37 1.17C82.77 1.22 83.18 1.25 83.55 1.25C83.92 1.25 84.24 1.22 84.46 1.16ZM256.89 28.6C256.45 28.57 256.01 28.55 255.6 28.54C255.54 28.56 255.51 28.58 255.49 28.61C255.49 28.61 255.8 28.78 255.96 28.81C256.57 28.89 256.6 28.76 256.89 28.6ZM318.45 44.39C318.75 44.51 318.88 44.59 319.12 44.65C319.23 44.66 319.34 44.68 319.45 44.68C319.56 44.69 319.66 44.69 319.75 44.68C319.85 44.64 319.88 44.59 319.82 44.53C319.82 44.53 319.53 44.42 319.41 44.42C319.08 44.4 318.76 44.39 318.45 44.39ZM70.28 0.4C69.65 0.31 69.04 0.22 68.6 0.35C69.6 0.46 69.6 0.46 70.28 0.4ZM80.5 1.36C79.87 1.16 79.5 1.14 79.19 1.17C79.12 1.18 79.08 1.2 79.06 1.22C79.1 1.24 79.21 1.33 79.29 1.35C79.37 1.37 79.46 1.39 79.55 1.39C79.88 1.39 80.2 1.38 80.5 1.36ZM113.55 0.79C113.57 0.75 113.59 0.72 113.42 0.69C113.38 0.68 113.33 0.67 113.28 0.66C113.23 0.65 113.17 0.65 113.12 0.65L113.55 0.79ZM133.11 53.12L132.74 53.15L132.9 53.18L133.34 53.18L133.11 53.12ZM265.85 8.86C265.72 8.85 265.58 8.83 265.56 8.87C265.56 8.87 265.71 8.97 265.79 8.98L265.85 8.86ZM244.3 9.66C244.21 9.66 244.12 9.66 244.05 9.67L244.3 9.66ZM56.05 22.55C55.94 22.52 55.83 22.51 55.72 22.5L55.58 22.48C55.58 22.48 55.64 22.49 55.72 22.5C55.8 22.51 55.96 22.55 56.05 22.55Z" fill="#F27914" fill-opacity="1.000000" fill-rule="nonzero"/>
		<path id="Vector" d="" fill="#707070" fill-opacity="0" fill-rule="evenodd"/>
	</g>
</svg>
