<svg width="107.000000" height="35.000000" viewBox="0 0 107 35" fill="none" xmlns="http://www.w3.org/2000/svg" xmlns:xlink="http://www.w3.org/1999/xlink">
	<desc>
			Created with Pixso.
	</desc>
	<defs/>
	<rect id="Google Play" width="107.000000" height="35.000000" transform="translate(0.000000 -0.432129)" fill="#FFFFFF" fill-opacity="0"/>
	<rect id="Rectangle 23" y="-0.432129" rx="17.500000" width="107.000000" height="35.000000" fill="#080809" fill-opacity="1.000000"/>
	<rect id="Rectangle 23" x="0.500000" y="0.067871" rx="17.000000" width="106.000000" height="34.000000" stroke="#707070" stroke-opacity="0" stroke-width="1.000000"/>
	<rect id="google-play 1" width="18.561693" height="19.999752" transform="translate(17.719238 6.567871)" fill="#FFFFFF" fill-opacity="0"/>
	<path id="Vector" d="M28.5 16.56L18.46 26.24C17.99 25.91 17.71 25.38 17.71 24.81L17.71 8.32C17.71 7.75 17.99 7.21 18.46 6.89L28.5 16.56Z" fill="#2196F3" fill-opacity="1.000000" fill-rule="nonzero"/>
	<path id="Vector" d="" fill="#707070" fill-opacity="0" fill-rule="evenodd"/>
	<path id="Vector" d="M32.02 13.19L28.5 16.56L18.46 6.89C18.5 6.86 18.54 6.84 18.58 6.81C19.11 6.49 19.77 6.48 20.31 6.78L32.02 13.19Z" fill="#4CAF50" fill-opacity="1.000000" fill-rule="nonzero"/>
	<path id="Vector" d="" fill="#707070" fill-opacity="0" fill-rule="evenodd"/>
	<path id="Vector" d="M36.28 16.56C36.28 17.21 35.93 17.8 35.37 18.11L32.02 19.94L28.5 16.56L32.02 13.19L35.37 15.02C35.93 15.33 36.28 15.92 36.28 16.56Z" fill="#F0BB1F" fill-opacity="1.000000" fill-rule="nonzero"/>
	<path id="Vector" d="" fill="#707070" fill-opacity="0" fill-rule="evenodd"/>
	<path id="Vector" d="M32.02 19.94L20.31 26.34C19.77 26.64 19.11 26.63 18.58 26.32C18.54 26.29 18.5 26.27 18.46 26.24L28.5 16.56L32.02 19.94Z" fill="#F15A2B" fill-opacity="1.000000" fill-rule="nonzero"/>
	<path id="Vector" d="" fill="#707070" fill-opacity="0" fill-rule="evenodd"/>
	<path id="GET IT ON" d="M46.45 11.07Q46.69 11.29 46.83 11.6L47.71 11.6Q47.51 11.09 47.16 10.73Q46.96 10.52 46.71 10.36Q46.55 10.26 46.37 10.18Q45.82 9.92 45.14 9.92Q44.6 9.92 44.12 10.1Q43.91 10.18 43.72 10.29Q43.45 10.44 43.23 10.64Q42.93 10.92 42.71 11.3Q42.64 11.43 42.58 11.56Q42.34 12.11 42.34 12.77Q42.34 13.44 42.59 14Q42.65 14.12 42.71 14.23Q42.92 14.6 43.21 14.87Q43.44 15.09 43.72 15.25Q43.91 15.36 44.11 15.43Q44.59 15.61 45.14 15.61Q45.71 15.61 46.21 15.41Q46.34 15.35 46.48 15.28Q46.8 15.1 47.05 14.86Q47.27 14.64 47.44 14.38Q47.6 14.12 47.71 13.85Q47.84 13.5 47.88 13.12L47.88 12.56L44.88 12.56L44.88 13.15L47.1 13.15Q47.03 13.81 46.68 14.25Q46.59 14.37 46.48 14.47Q46.34 14.6 46.18 14.69Q45.74 14.96 45.14 14.96Q44.68 14.96 44.29 14.79Q44.18 14.74 44.09 14.69Q43.92 14.59 43.77 14.46Q43.52 14.24 43.35 13.92Q43.08 13.43 43.08 12.77Q43.08 12.12 43.35 11.62Q43.53 11.29 43.79 11.06Q43.93 10.94 44.09 10.85Q44.19 10.79 44.3 10.74Q44.68 10.58 45.14 10.58Q45.67 10.58 46.08 10.8Q46.12 10.82 46.16 10.85Q46.32 10.94 46.45 11.07ZM49.56 12.44L49.56 10.58L51.83 10.58L51.83 9.98L48.83 9.98L48.83 15.56L51.83 15.56L51.83 14.96L49.56 14.96L49.56 13.04L51.6 13.04L51.6 12.44L49.56 12.44ZM56.37 10.58L56.37 9.99L52.59 9.99L52.59 10.58L54.12 10.58L54.12 15.56L54.85 15.56L54.85 10.58L56.37 10.58ZM60.13 15.56L60.13 9.99L59.4 9.99L59.4 15.56L60.13 15.56ZM64.8 10.58L64.8 9.99L61.03 9.99L61.03 10.58L62.56 10.58L62.56 15.56L63.28 15.56L63.28 10.58L64.8 10.58Z" fill="#FFFFFF" fill-opacity="1.000000" fill-rule="evenodd"/>
	<path id="GET IT ON" d="M46.83 11.6Q46.6 11.12 46.16 10.85Q45.72 10.58 45.14 10.58Q44.56 10.58 44.09 10.85Q43.62 11.12 43.35 11.62Q43.08 12.12 43.08 12.77Q43.08 13.43 43.35 13.92Q43.62 14.42 44.09 14.69Q44.56 14.96 45.14 14.96Q45.96 14.96 46.48 14.47Q47.01 13.98 47.1 13.15L44.88 13.15L44.88 12.56L47.88 12.56L47.88 13.12Q47.81 13.8 47.44 14.38Q47.08 14.95 46.48 15.28Q45.88 15.61 45.14 15.61Q44.36 15.61 43.72 15.25Q43.08 14.88 42.71 14.23Q42.34 13.59 42.34 12.77Q42.34 11.96 42.71 11.3Q43.08 10.65 43.72 10.29Q44.36 9.92 45.14 9.92Q46.03 9.92 46.71 10.36Q47.4 10.8 47.71 11.6L46.83 11.6ZM49.56 10.58L49.56 12.44L51.6 12.44L51.6 13.04L49.56 13.04L49.56 14.96L51.83 14.96L51.83 15.56L48.83 15.56L48.83 9.98L51.83 9.98L51.83 10.58L49.56 10.58ZM56.37 9.99L56.37 10.58L54.85 10.58L54.85 15.56L54.12 15.56L54.12 10.58L52.59 10.58L52.59 9.99L56.37 9.99ZM60.13 9.99L60.13 15.56L59.4 15.56L59.4 9.99L60.13 9.99ZM64.8 9.99L64.8 10.58L63.28 10.58L63.28 15.56L62.56 15.56L62.56 10.58L61.03 10.58L61.03 9.99L64.8 9.99Z" stroke="#707070" stroke-opacity="0" stroke-width="1.000000"/>
	<path id="GOOGLE PLAY" d="M46.45 21.07Q46.69 21.29 46.83 21.6L47.71 21.6Q47.51 21.09 47.16 20.73Q46.96 20.52 46.71 20.36Q46.55 20.26 46.37 20.18Q45.82 19.92 45.14 19.92Q44.6 19.92 44.12 20.1Q43.91 20.18 43.72 20.29Q43.45 20.44 43.23 20.64Q42.93 20.92 42.71 21.3Q42.64 21.43 42.58 21.56Q42.34 22.11 42.34 22.77Q42.34 23.44 42.59 24Q42.65 24.12 42.71 24.23Q42.92 24.6 43.21 24.87Q43.44 25.09 43.72 25.25Q43.91 25.36 44.11 25.43Q44.59 25.61 45.14 25.61Q45.71 25.61 46.21 25.41Q46.34 25.35 46.48 25.28Q46.8 25.1 47.05 24.86Q47.27 24.64 47.44 24.38Q47.6 24.12 47.71 23.85Q47.84 23.5 47.88 23.12L47.88 22.56L44.88 22.56L44.88 23.15L47.1 23.15Q47.03 23.81 46.68 24.25Q46.59 24.37 46.48 24.47Q46.34 24.6 46.18 24.69Q45.74 24.96 45.14 24.96Q44.68 24.96 44.29 24.79Q44.18 24.74 44.09 24.69Q43.92 24.59 43.77 24.46Q43.52 24.24 43.35 23.92Q43.08 23.43 43.08 22.77Q43.08 22.12 43.35 21.62Q43.53 21.29 43.79 21.06Q43.93 20.94 44.09 20.85Q44.19 20.79 44.3 20.74Q44.68 20.58 45.14 20.58Q45.67 20.58 46.08 20.8Q46.12 20.82 46.16 20.85Q46.32 20.94 46.45 21.07ZM50.33 25.44Q50.82 25.62 51.36 25.62Q51.94 25.62 52.44 25.42Q52.62 25.35 52.79 25.26Q53.08 25.09 53.32 24.86Q53.6 24.59 53.79 24.24Q53.84 24.16 53.89 24.07Q54.16 23.48 54.16 22.77Q54.16 22.06 53.89 21.49Q53.85 21.39 53.79 21.3Q53.59 20.95 53.32 20.68Q53.08 20.45 52.79 20.29Q52.62 20.19 52.44 20.12Q51.94 19.92 51.36 19.92Q50.82 19.92 50.34 20.1Q50.14 20.18 49.95 20.29Q49.68 20.44 49.46 20.64Q49.15 20.92 48.93 21.3Q48.86 21.43 48.8 21.56Q48.56 22.11 48.56 22.77Q48.56 23.43 48.81 23.99Q48.86 24.12 48.93 24.24Q49.15 24.61 49.45 24.9Q49.68 25.1 49.95 25.26Q50.13 25.36 50.33 25.44ZM56.62 25.44Q57.1 25.62 57.65 25.62Q58.23 25.62 58.73 25.42Q58.91 25.35 59.07 25.26Q59.37 25.09 59.61 24.86Q59.88 24.59 60.08 24.24Q60.13 24.16 60.17 24.07Q60.45 23.48 60.45 22.77Q60.45 22.06 60.18 21.49Q60.13 21.39 60.08 21.3Q59.88 20.95 59.6 20.68Q59.37 20.45 59.07 20.29Q58.9 20.19 58.72 20.12Q58.23 19.92 57.65 19.92Q57.11 19.92 56.63 20.1Q56.43 20.18 56.23 20.29Q55.97 20.44 55.74 20.64Q55.44 20.92 55.22 21.3Q55.15 21.43 55.09 21.56Q54.85 22.11 54.85 22.77Q54.85 23.43 55.1 23.99Q55.15 24.12 55.22 24.24Q55.44 24.61 55.74 24.9Q55.96 25.1 56.23 25.26Q56.42 25.36 56.62 25.44ZM65.25 21.07Q65.49 21.29 65.63 21.6L66.51 21.6Q66.31 21.09 65.96 20.73Q65.76 20.52 65.51 20.36Q65.35 20.26 65.17 20.18Q64.62 19.92 63.94 19.92Q63.4 19.92 62.92 20.1Q62.71 20.18 62.52 20.29Q62.25 20.44 62.03 20.64Q61.73 20.92 61.51 21.3Q61.44 21.43 61.38 21.56Q61.14 22.11 61.14 22.77Q61.14 23.44 61.39 24Q61.45 24.12 61.51 24.23Q61.72 24.6 62.01 24.87Q62.24 25.09 62.52 25.25Q62.71 25.36 62.91 25.43Q63.39 25.61 63.94 25.61Q64.51 25.61 65.01 25.41Q65.14 25.35 65.28 25.28Q65.6 25.1 65.85 24.86Q66.07 24.64 66.24 24.38Q66.4 24.12 66.51 23.85Q66.64 23.5 66.68 23.12L66.68 22.56L63.68 22.56L63.68 23.15L65.9 23.15Q65.83 23.81 65.48 24.25Q65.39 24.37 65.28 24.47Q65.14 24.6 64.98 24.69Q64.54 24.96 63.94 24.96Q63.48 24.96 63.09 24.79Q62.98 24.74 62.89 24.69Q62.72 24.59 62.57 24.46Q62.32 24.24 62.15 23.92Q61.88 23.43 61.88 22.77Q61.88 22.12 62.15 21.62Q62.33 21.29 62.59 21.06Q62.73 20.94 62.89 20.85Q62.99 20.79 63.1 20.74Q63.48 20.58 63.94 20.58Q64.47 20.58 64.88 20.8Q64.92 20.82 64.96 20.85Q65.12 20.94 65.25 21.07ZM71.82 22.44L71.82 20.58L74.09 20.58L74.09 19.98L71.09 19.98L71.09 25.56L74.09 25.56L74.09 24.96L71.82 24.96L71.82 23.04L73.85 23.04L73.85 22.44L71.82 22.44ZM70.32 24.97L68.36 24.97L68.36 19.99L67.63 19.99L67.63 25.56L70.32 25.56L70.32 24.97ZM80.9 22.34Q81.06 22.02 81.06 21.62Q81.06 21.18 80.87 20.84Q80.76 20.62 80.57 20.44Q80.07 19.99 79.13 19.99L77.33 19.99L77.33 25.56L78.06 25.56L78.06 23.23L79.13 23.23Q80.11 23.23 80.58 22.78Q80.78 22.58 80.9 22.34ZM84.64 24.97L82.69 24.97L82.69 19.99L81.96 19.99L81.96 25.56L84.64 25.56L84.64 24.97ZM92.9 23.46L94.71 19.99L93.91 19.99L92.53 22.81L91.16 19.99L90.35 19.99L92.17 23.46L92.17 25.56L92.9 25.56L92.9 23.46ZM86.28 24.32L88.72 24.32L89.16 25.56L89.93 25.56L87.92 20.02L87.08 20.02L85.07 25.56L85.83 25.56L86.28 24.32ZM52.21 24.82Q51.82 24.99 51.36 24.99Q50.91 24.99 50.53 24.82Q50.42 24.78 50.31 24.72Q50.16 24.63 50.02 24.51Q49.75 24.28 49.57 23.94Q49.31 23.43 49.31 22.77Q49.31 22.1 49.57 21.6Q49.76 21.26 50.03 21.03Q50.16 20.91 50.31 20.83Q50.38 20.78 50.46 20.75Q50.87 20.56 51.36 20.56Q51.86 20.56 52.27 20.75Q52.35 20.78 52.42 20.83Q52.57 20.91 52.7 21.03Q52.97 21.26 53.15 21.6Q53.42 22.1 53.42 22.77Q53.42 23.43 53.15 23.94Q52.97 24.28 52.7 24.51Q52.57 24.63 52.41 24.72Q52.31 24.77 52.21 24.82ZM58.49 24.82Q58.11 24.99 57.65 24.99Q57.2 24.99 56.82 24.82Q56.7 24.78 56.6 24.72Q56.44 24.63 56.31 24.51Q56.04 24.28 55.86 23.94Q55.59 23.43 55.59 22.77Q55.59 22.1 55.86 21.6Q56.04 21.26 56.31 21.03Q56.44 20.91 56.59 20.83Q56.67 20.78 56.75 20.75Q57.16 20.56 57.65 20.56Q58.15 20.56 58.56 20.75Q58.63 20.78 58.71 20.83Q58.86 20.91 58.99 21.03Q59.26 21.26 59.44 21.6Q59.71 22.1 59.71 22.77Q59.71 23.43 59.44 23.94Q59.26 24.28 58.99 24.51Q58.86 24.63 58.7 24.72Q58.6 24.77 58.49 24.82ZM80.03 22.37Q79.74 22.64 79.13 22.64L78.06 22.64L78.06 20.59L79.13 20.59Q79.8 20.59 80.09 20.92Q80.31 21.17 80.31 21.62Q80.31 22.02 80.12 22.27Q80.08 22.32 80.03 22.37ZM87.5 20.91L88.51 23.73L86.49 23.73L87.5 20.91Z" fill="#FFFFFF" fill-opacity="1.000000" fill-rule="evenodd"/>
	<path id="GOOGLE PLAY" d="M46.83 21.6Q46.6 21.12 46.16 20.85Q45.72 20.58 45.14 20.58Q44.56 20.58 44.09 20.85Q43.62 21.12 43.35 21.62Q43.08 22.12 43.08 22.77Q43.08 23.43 43.35 23.92Q43.62 24.42 44.09 24.69Q44.56 24.96 45.14 24.96Q45.96 24.96 46.48 24.47Q47.01 23.98 47.1 23.15L44.88 23.15L44.88 22.56L47.88 22.56L47.88 23.12Q47.81 23.8 47.44 24.38Q47.08 24.95 46.48 25.28Q45.88 25.61 45.14 25.61Q44.36 25.61 43.72 25.25Q43.08 24.88 42.71 24.23Q42.34 23.59 42.34 22.77Q42.34 21.96 42.71 21.3Q43.08 20.65 43.72 20.29Q44.36 19.92 45.14 19.92Q46.03 19.92 46.71 20.36Q47.4 20.8 47.71 21.6L46.83 21.6ZM51.36 25.62Q50.59 25.62 49.95 25.26Q49.31 24.89 48.93 24.24Q48.56 23.59 48.56 22.77Q48.56 21.96 48.93 21.3Q49.31 20.65 49.95 20.29Q50.59 19.92 51.36 19.92Q52.15 19.92 52.79 20.29Q53.43 20.65 53.79 21.3Q54.16 21.95 54.16 22.77Q54.16 23.59 53.79 24.24Q53.43 24.89 52.79 25.26Q52.15 25.62 51.36 25.62ZM51.36 24.99Q51.95 24.99 52.41 24.72Q52.88 24.44 53.15 23.94Q53.42 23.43 53.42 22.77Q53.42 22.1 53.15 21.6Q52.88 21.1 52.42 20.83Q51.96 20.56 51.36 20.56Q50.77 20.56 50.31 20.83Q49.84 21.1 49.57 21.6Q49.31 22.1 49.31 22.77Q49.31 23.43 49.57 23.94Q49.84 24.44 50.31 24.72Q50.78 24.99 51.36 24.99ZM57.65 25.62Q56.87 25.62 56.23 25.26Q55.59 24.89 55.22 24.24Q54.85 23.59 54.85 22.77Q54.85 21.96 55.22 21.3Q55.59 20.65 56.23 20.29Q56.87 19.92 57.65 19.92Q58.43 19.92 59.07 20.29Q59.71 20.65 60.08 21.3Q60.45 21.95 60.45 22.77Q60.45 23.59 60.08 24.24Q59.71 24.89 59.07 25.26Q58.43 25.62 57.65 25.62ZM57.65 24.99Q58.24 24.99 58.7 24.72Q59.17 24.44 59.44 23.94Q59.71 23.43 59.71 22.77Q59.71 22.1 59.44 21.6Q59.17 21.1 58.71 20.83Q58.24 20.56 57.65 20.56Q57.06 20.56 56.59 20.83Q56.13 21.1 55.86 21.6Q55.59 22.1 55.59 22.77Q55.59 23.43 55.86 23.94Q56.13 24.44 56.6 24.72Q57.07 24.99 57.65 24.99ZM65.63 21.6Q65.4 21.12 64.96 20.85Q64.52 20.58 63.94 20.58Q63.36 20.58 62.89 20.85Q62.42 21.12 62.15 21.62Q61.88 22.12 61.88 22.77Q61.88 23.43 62.15 23.92Q62.42 24.42 62.89 24.69Q63.36 24.96 63.94 24.96Q64.76 24.96 65.28 24.47Q65.81 23.98 65.9 23.15L63.68 23.15L63.68 22.56L66.68 22.56L66.68 23.12Q66.61 23.8 66.24 24.38Q65.88 24.95 65.28 25.28Q64.68 25.61 63.94 25.61Q63.16 25.61 62.52 25.25Q61.88 24.88 61.51 24.23Q61.14 23.59 61.14 22.77Q61.14 21.96 61.51 21.3Q61.88 20.65 62.52 20.29Q63.16 19.92 63.94 19.92Q64.83 19.92 65.51 20.36Q66.2 20.8 66.51 21.6L65.63 21.6ZM68.36 24.97L70.32 24.97L70.32 25.56L67.63 25.56L67.63 19.99L68.36 19.99L68.36 24.97ZM71.82 20.58L71.82 22.44L73.85 22.44L73.85 23.04L71.82 23.04L71.82 24.96L74.09 24.96L74.09 25.56L71.09 25.56L71.09 19.98L74.09 19.98L74.09 20.58L71.82 20.58ZM81.06 21.62Q81.06 22.31 80.58 22.78Q80.11 23.23 79.13 23.23L78.06 23.23L78.06 25.56L77.33 25.56L77.33 19.99L79.13 19.99Q80.07 19.99 80.57 20.44Q81.06 20.9 81.06 21.62ZM79.13 22.64Q79.74 22.64 80.03 22.37Q80.31 22.11 80.31 21.62Q80.31 20.59 79.13 20.59L78.06 20.59L78.06 22.64L79.13 22.64ZM82.69 24.97L84.64 24.97L84.64 25.56L81.96 25.56L81.96 19.99L82.69 19.99L82.69 24.97ZM88.72 24.32L86.28 24.32L85.83 25.56L85.07 25.56L87.08 20.02L87.92 20.02L89.93 25.56L89.16 25.56L88.72 24.32ZM88.51 23.73L87.5 20.91L86.49 23.73L88.51 23.73ZM94.71 19.99L92.9 23.46L92.9 25.56L92.17 25.56L92.17 23.46L90.35 19.99L91.16 19.99L92.53 22.81L93.91 19.99L94.71 19.99Z" stroke="#707070" stroke-opacity="0" stroke-width="1.000000"/>
</svg>
