<svg width="19.000000" height="20.000000" viewBox="0 0 19 20" fill="none" xmlns="http://www.w3.org/2000/svg" xmlns:xlink="http://www.w3.org/1999/xlink">
	<desc>
			Created with Pixso.
	</desc>
	<defs/>
	<path id="ic_date_range_24px" d="M6.12 8.53L4.03 8.53L4.03 10.6L6.12 10.6L6.12 8.53ZM10.3 8.53L8.21 8.53L8.21 10.6L10.3 10.6L10.3 8.53ZM14.48 8.53L12.39 8.53L12.39 10.6L14.48 10.6L14.48 8.53ZM16.57 1.27L15.52 1.27L15.52 -0.8L13.43 -0.8L13.43 1.27L5.08 1.27L5.08 -0.8L2.99 -0.8L2.99 1.27L1.95 1.27C0.79 1.27 -0.13 2.2 -0.13 3.34L-0.14 17.86C-0.14 19 0.79 19.93 1.95 19.93L16.57 19.93C17.72 19.93 18.66 19 18.66 17.86L18.66 3.34C18.66 2.2 17.72 1.27 16.57 1.27ZM16.57 17.86L1.95 17.86L1.95 6.45L16.57 6.45L16.57 17.86Z" fill="#13BEFF" fill-opacity="1.000000" fill-rule="nonzero"/>
	<path id="ic_date_range_24px" d="M4.03 8.53L4.03 10.6L6.12 10.6L6.12 8.53L4.03 8.53ZM8.21 8.53L8.21 10.6L10.3 10.6L10.3 8.53L8.21 8.53ZM12.39 8.53L12.39 10.6L14.48 10.6L14.48 8.53L12.39 8.53ZM15.52 1.27L15.52 -0.8L13.43 -0.8L13.43 1.27L5.08 1.27L5.08 -0.8L2.99 -0.8L2.99 1.27L1.95 1.27C0.79 1.27 -0.13 2.2 -0.13 3.34L-0.14 17.86C-0.14 19 0.79 19.93 1.95 19.93L16.57 19.93C17.72 19.93 18.66 19 18.66 17.86L18.66 3.34C18.66 2.2 17.72 1.27 16.57 1.27L15.52 1.27ZM1.95 17.86L1.95 6.45L16.57 6.45L16.57 17.86L1.95 17.86Z" stroke="#95989A" stroke-opacity="0" stroke-width="1.000000"/>
</svg>
