<svg width="17.000000" height="16.000000" viewBox="0 0 17 16" fill="none" xmlns="http://www.w3.org/2000/svg" xmlns:xlink="http://www.w3.org/1999/xlink">
	<desc>
			Created with Pixso.
	</desc>
	<defs/>
	<path id="ic_favorite_border_24px" d="M12.04 -0.8C10.58 -0.8 9.17 -0.1 8.26 1C7.34 -0.1 5.94 -0.8 4.48 -0.8C1.89 -0.8 -0.15 1.29 -0.15 3.95C-0.15 7.21 2.71 9.87 7.04 13.92L8.26 15.05L9.48 13.91C13.8 9.87 16.66 7.21 16.66 3.95C16.66 1.29 14.63 -0.8 12.04 -0.8ZM8.34 12.63L8.26 12.72L8.17 12.63C4.17 8.91 1.53 6.44 1.53 3.95C1.53 2.22 2.8 0.93 4.48 0.93C5.77 0.93 7.03 1.78 7.48 2.96L9.05 2.96C9.48 1.78 10.74 0.93 12.04 0.93C13.72 0.93 14.98 2.22 14.98 3.95C14.98 6.44 12.34 8.91 8.34 12.63Z" fill="#13BEFF" fill-opacity="1.000000" fill-rule="nonzero"/>
	<path id="ic_favorite_border_24px" d="M8.26 1C7.34 -0.1 5.94 -0.8 4.48 -0.8C1.89 -0.8 -0.15 1.29 -0.15 3.95C-0.15 7.21 2.71 9.87 7.04 13.92L8.26 15.05L9.48 13.91C13.8 9.87 16.66 7.21 16.66 3.95C16.66 1.29 14.63 -0.8 12.04 -0.8C10.58 -0.8 9.17 -0.1 8.26 1ZM8.26 12.72L8.17 12.63C4.17 8.91 1.53 6.44 1.53 3.95C1.53 2.22 2.8 0.93 4.48 0.93C5.77 0.93 7.03 1.78 7.48 2.96L9.05 2.96C9.48 1.78 10.74 0.93 12.04 0.93C13.72 0.93 14.98 2.22 14.98 3.95C14.98 6.44 12.34 8.91 8.34 12.63L8.26 12.72Z" stroke="#95989A" stroke-opacity="0" stroke-width="1.000000"/>
</svg>
