<svg width="17.000000" height="19.000000" viewBox="0 0 17 19" fill="none" xmlns="http://www.w3.org/2000/svg" xmlns:xlink="http://www.w3.org/1999/xlink">
	<desc>
			Created with Pixso.
	</desc>
	<defs/>
	<path id="ic_share_24px" d="M14.1 12.78C13.36 12.78 12.7 13.07 12.2 13.52L5.31 9.52C5.36 9.3 5.4 9.08 5.4 8.84C5.4 8.61 5.36 8.39 5.31 8.17L12.12 4.2C12.65 4.69 13.33 4.99 14.1 4.99C15.7 4.99 17 3.69 17 2.09C17 0.49 15.7 -0.8 14.1 -0.8C12.49 -0.8 11.2 0.49 11.2 2.09C11.2 2.32 11.23 2.54 11.28 2.77L4.47 6.73C3.95 6.25 3.26 5.95 2.5 5.95C0.89 5.95 -0.4 7.24 -0.4 8.84C-0.4 10.44 0.89 11.74 2.5 11.74C3.26 11.74 3.95 11.44 4.47 10.96L11.35 14.97C11.3 15.17 11.27 15.38 11.27 15.6C11.27 17.15 12.54 18.41 14.1 18.41C15.65 18.41 16.92 17.15 16.92 15.6C16.92 14.04 15.65 12.78 14.1 12.78Z" fill="#13BEFF" fill-opacity="1.000000" fill-rule="nonzero"/>
	<path id="ic_share_24px" d="M12.2 13.52L5.31 9.52C5.36 9.3 5.4 9.08 5.4 8.84C5.4 8.61 5.36 8.39 5.31 8.17L12.12 4.2C12.65 4.69 13.33 4.99 14.1 4.99C15.7 4.99 17 3.69 17 2.09C17 0.49 15.7 -0.8 14.1 -0.8C12.49 -0.8 11.2 0.49 11.2 2.09C11.2 2.32 11.23 2.54 11.28 2.77L4.47 6.73C3.95 6.25 3.26 5.95 2.5 5.95C0.89 5.95 -0.4 7.24 -0.4 8.84C-0.4 10.44 0.89 11.74 2.5 11.74C3.26 11.74 3.95 11.44 4.47 10.96L11.35 14.97C11.3 15.17 11.27 15.38 11.27 15.6C11.27 17.15 12.54 18.41 14.1 18.41C15.65 18.41 16.92 17.15 16.92 15.6C16.92 14.04 15.65 12.78 14.1 12.78C13.36 12.78 12.7 13.07 12.2 13.52Z" stroke="#95989A" stroke-opacity="0" stroke-width="1.000000"/>
</svg>
