<svg width="100.000000" height="35.000000" viewBox="0 0 100 35" fill="none" xmlns="http://www.w3.org/2000/svg" xmlns:xlink="http://www.w3.org/1999/xlink">
	<desc>
			Created with Pixso.
	</desc>
	<defs/>
	<rect id="Play Store" width="100.000000" height="35.000000" transform="translate(0.000000 -0.432129)" fill="#FFFFFF" fill-opacity="0"/>
	<rect id="Rectangle 24" y="-0.432129" rx="17.500000" width="100.000000" height="35.000000" fill="#080809" fill-opacity="1.000000"/>
	<rect id="Rectangle 24" x="0.500000" y="0.067871" rx="17.000000" width="99.000000" height="34.000000" stroke="#707070" stroke-opacity="0" stroke-width="1.000000"/>
	<rect id="apple (2) 1" width="13.123594" height="16.000004" transform="translate(17.438232 7.567871)" fill="#FFFFFF" fill-opacity="0"/>
	<rect id="Group" width="13.123594" height="16.000004" transform="translate(17.438232 7.567871)" fill="#FFFFFF" fill-opacity="0"/>
	<path id="Vector" d="M21.78 23.56C19.4 23.55 17.43 18.69 17.43 16.21C17.43 12.17 20.47 11.28 21.64 11.28C22.16 11.28 22.73 11.49 23.22 11.67C23.57 11.8 23.93 11.93 24.13 11.93C24.25 11.93 24.53 11.82 24.78 11.72C25.31 11.51 25.97 11.25 26.73 11.25C27.31 11.25 29.05 11.38 30.1 12.95L30.34 13.31L29.99 13.58C29.49 13.96 28.57 14.65 28.57 16.03C28.57 17.65 29.61 18.28 30.11 18.58C30.33 18.71 30.56 18.85 30.56 19.15C30.56 19.34 29 23.54 26.73 23.54C26.18 23.54 25.79 23.37 25.44 23.23C25.09 23.08 24.79 22.95 24.29 22.95C24.04 22.95 23.72 23.07 23.38 23.19C22.92 23.37 22.38 23.56 21.78 23.56Z" fill="#FFFFFF" fill-opacity="1.000000" fill-rule="nonzero"/>
	<path id="Vector" d="" fill="#707070" fill-opacity="0" fill-rule="evenodd"/>
	<path id="Vector" d="M26.97 7.56C27.03 9.69 25.51 11.17 23.99 11.07C23.74 9.38 25.51 7.56 26.97 7.56Z" fill="#FFFFFF" fill-opacity="1.000000" fill-rule="nonzero"/>
	<path id="Vector" d="" fill="#707070" fill-opacity="0" fill-rule="evenodd"/>
	<path id="Avalible on the" d="M49.53 9.71Q49.6 9.74 49.68 9.74Q49.75 9.74 49.81 9.72Q49.88 9.69 49.94 9.63Q49.98 9.58 50.01 9.52Q50.04 9.45 50.04 9.37Q50.04 9.28 50.01 9.21Q49.98 9.15 49.94 9.11Q49.88 9.05 49.81 9.02Q49.75 9 49.68 9Q49.6 9 49.53 9.03Q49.47 9.06 49.42 9.11Q49.37 9.15 49.34 9.21Q49.31 9.28 49.31 9.37Q49.31 9.45 49.34 9.52Q49.37 9.58 49.42 9.63Q49.47 9.68 49.53 9.71ZM48.47 13.56L48.47 9.12L47.92 9.12L47.92 13.56L48.47 13.56ZM51.48 10.79Q51.45 10.84 51.42 10.89L51.42 9.12L50.87 9.12L50.87 13.56L51.42 13.56L51.42 12.96Q51.44 12.99 51.46 13.02Q51.62 13.27 51.9 13.43Q51.91 13.43 51.92 13.44Q52.23 13.62 52.65 13.62Q52.95 13.62 53.21 13.52Q53.33 13.47 53.45 13.4Q53.56 13.33 53.66 13.24Q53.87 13.06 54.01 12.8Q54.01 12.79 54.01 12.78Q54.21 12.4 54.21 11.91Q54.21 11.4 54.01 11.02Q53.87 10.77 53.67 10.59Q53.57 10.5 53.45 10.43Q53.37 10.38 53.28 10.35Q52.99 10.22 52.65 10.22Q52.29 10.22 51.99 10.37Q51.95 10.39 51.91 10.41Q51.64 10.56 51.48 10.79ZM55.48 13.56L55.48 9.12L54.93 9.12L54.93 13.56L55.48 13.56ZM37.11 12.63L38.93 12.63L39.26 13.56L39.84 13.56L38.33 9.4L37.7 9.4L36.19 13.56L36.77 13.56L37.11 12.63ZM38.02 10.08L38.77 12.19L37.26 12.19L38.02 10.08ZM67.94 10.42Q67.62 10.21 67.17 10.21Q66.89 10.21 66.65 10.31Q66.6 10.33 66.56 10.35Q66.38 10.44 66.25 10.57Q66.18 10.65 66.11 10.74L66.11 10.27L65.57 10.27L65.57 13.56L66.11 13.56L66.11 11.75Q66.11 11.23 66.37 10.96Q66.44 10.89 66.52 10.83Q66.74 10.69 67.06 10.69Q67.38 10.69 67.6 10.84Q67.67 10.89 67.73 10.95L67.73 10.95Q67.98 11.21 67.98 11.7L67.98 13.56L68.52 13.56L68.52 11.62Q68.52 11 68.21 10.65Q68.18 10.61 68.14 10.58Q68.05 10.48 67.94 10.42ZM43.87 11.02Q43.66 11.4 43.66 11.91Q43.66 12.4 43.86 12.79Q43.87 12.79 43.87 12.8Q44.01 13.07 44.24 13.26Q44.32 13.34 44.42 13.4Q44.54 13.47 44.66 13.52Q44.92 13.62 45.22 13.62Q45.63 13.62 45.94 13.44Q45.95 13.44 45.96 13.43Q46.26 13.26 46.42 13Q46.43 12.98 46.45 12.95L46.45 13.56L47 13.56L47 10.27L46.45 10.27L46.45 10.87Q46.44 10.86 46.42 10.84Q46.27 10.58 45.97 10.41Q45.66 10.22 45.22 10.22Q44.92 10.22 44.65 10.32Q44.53 10.37 44.43 10.43Q44.31 10.5 44.2 10.59Q44 10.77 43.87 11.02ZM59.39 12.12Q59.41 11.95 59.41 11.79Q59.41 11.38 59.24 11.05Q59.23 11.02 59.21 10.99Q59.12 10.83 59.01 10.7Q58.86 10.54 58.66 10.43Q58.64 10.42 58.63 10.41Q58.28 10.22 57.83 10.22Q57.36 10.22 57 10.42Q56.99 10.42 56.98 10.43Q56.83 10.51 56.71 10.62Q56.53 10.79 56.41 11.02Q56.2 11.4 56.2 11.91Q56.2 12.42 56.41 12.81Q56.54 13.05 56.73 13.22Q56.85 13.33 56.99 13.41Q57.05 13.44 57.1 13.46Q57.43 13.62 57.83 13.62Q58.36 13.62 58.74 13.37Q58.78 13.35 58.81 13.32Q59.02 13.17 59.15 12.96Q59.28 12.78 59.34 12.55L58.75 12.55Q58.7 12.69 58.61 12.81Q58.53 12.91 58.42 12.99Q58.18 13.15 57.83 13.15Q57.56 13.15 57.35 13.05Q57.21 12.99 57.09 12.88Q57.03 12.83 56.99 12.77Q56.79 12.51 56.76 12.12L59.39 12.12ZM62.5 13.49Q62.8 13.62 63.16 13.62Q63.53 13.62 63.84 13.49Q63.93 13.45 64.01 13.41Q64.18 13.32 64.32 13.19Q64.5 13.03 64.62 12.81Q64.63 12.79 64.65 12.77Q64.85 12.4 64.85 11.91Q64.85 11.4 64.63 11.02Q64.5 10.79 64.32 10.63Q64.19 10.51 64.03 10.43Q63.97 10.39 63.9 10.36Q63.57 10.22 63.19 10.22Q62.8 10.22 62.47 10.37Q62.4 10.39 62.34 10.43Q62.2 10.51 62.07 10.61Q61.88 10.78 61.74 11.02Q61.73 11.04 61.73 11.05Q61.52 11.43 61.52 11.91Q61.52 12.42 61.74 12.81Q61.86 13.04 62.05 13.2Q62.17 13.32 62.33 13.41Q62.41 13.45 62.5 13.49ZM42.74 10.27L41.73 13.06L40.7 10.27L40.11 10.27L41.4 13.56L42.04 13.56L43.33 10.27L42.74 10.27ZM49.94 13.56L49.94 10.27L49.4 10.27L49.4 13.56L49.94 13.56ZM58.7 11.14Q58.84 11.37 58.84 11.68L56.77 11.68Q56.8 11.29 57.01 11.04Q57.05 10.99 57.1 10.95Q57.22 10.84 57.35 10.78Q57.56 10.68 57.81 10.68Q58.06 10.68 58.27 10.77Q58.3 10.79 58.33 10.8Q58.45 10.86 58.54 10.95Q58.64 11.03 58.7 11.14ZM46.3 11.27Q46.45 11.54 46.45 11.91Q46.45 12.29 46.3 12.56Q46.19 12.77 46.02 12.9Q45.96 12.95 45.89 12.99Q45.8 13.04 45.71 13.07Q45.53 13.14 45.33 13.14Q45.12 13.14 44.94 13.07Q44.85 13.04 44.77 12.99Q44.72 12.96 44.66 12.92Q44.49 12.78 44.37 12.56Q44.22 12.29 44.22 11.91Q44.22 11.54 44.37 11.26Q44.49 11.05 44.66 10.91Q44.72 10.87 44.77 10.84Q44.85 10.8 44.93 10.76Q45.12 10.69 45.33 10.69Q45.53 10.69 45.7 10.76Q45.8 10.79 45.89 10.84Q45.96 10.88 46.03 10.93Q46.19 11.07 46.3 11.27ZM53.5 11.26Q53.65 11.54 53.65 11.91Q53.65 12.29 53.5 12.56Q53.39 12.77 53.23 12.9Q53.17 12.95 53.1 12.99Q53.01 13.04 52.91 13.07Q52.74 13.14 52.54 13.14Q52.36 13.14 52.2 13.09Q52.09 13.05 51.98 12.99Q51.92 12.95 51.87 12.91Q51.69 12.78 51.57 12.56Q51.42 12.29 51.42 11.91Q51.42 11.55 51.57 11.27Q51.69 11.05 51.87 10.91Q51.93 10.88 51.98 10.84Q52.09 10.78 52.21 10.74Q52.37 10.69 52.54 10.69Q52.74 10.69 52.92 10.76Q53.01 10.79 53.1 10.84Q53.17 10.88 53.23 10.93Q53.39 11.06 53.5 11.26ZM63.46 13.1Q63.32 13.14 63.16 13.14Q62.96 13.14 62.79 13.08Q62.7 13.05 62.62 13Q62.58 12.98 62.54 12.95Q62.35 12.82 62.23 12.59Q62.08 12.31 62.08 11.91Q62.08 11.52 62.23 11.24Q62.36 11.01 62.55 10.88Q62.59 10.85 62.63 10.83Q62.7 10.79 62.76 10.77Q62.96 10.69 63.18 10.69Q63.36 10.69 63.52 10.74Q63.63 10.78 63.73 10.83Q63.77 10.85 63.81 10.88Q64.01 11.01 64.13 11.24Q64.29 11.52 64.29 11.91Q64.29 12.31 64.13 12.59Q64.01 12.8 63.83 12.93Q63.77 12.97 63.71 13Q63.59 13.06 63.46 13.1Z" fill="#FFFFFF" fill-opacity="1.000000" fill-rule="evenodd"/>
	<path id="Avalible on the" d="M38.93 12.63L37.11 12.63L36.77 13.56L36.19 13.56L37.7 9.4L38.33 9.4L39.84 13.56L39.26 13.56L38.93 12.63ZM38.77 12.19L38.02 10.08L37.26 12.19L38.77 12.19ZM41.73 13.06L42.74 10.27L43.33 10.27L42.04 13.56L41.4 13.56L40.11 10.27L40.7 10.27L41.73 13.06ZM43.66 11.91Q43.66 11.4 43.87 11.02Q44.07 10.64 44.43 10.43Q44.78 10.22 45.22 10.22Q45.66 10.22 45.97 10.41Q46.29 10.59 46.45 10.87L46.45 10.27L47 10.27L47 13.56L46.45 13.56L46.45 12.95Q46.28 13.24 45.96 13.43Q45.64 13.62 45.22 13.62Q44.78 13.62 44.42 13.4Q44.07 13.18 43.87 12.8Q43.66 12.4 43.66 11.91ZM46.45 11.91Q46.45 11.54 46.3 11.27Q46.15 10.99 45.89 10.84Q45.64 10.69 45.33 10.69Q45.03 10.69 44.77 10.84Q44.52 10.98 44.37 11.26Q44.22 11.54 44.22 11.91Q44.22 12.29 44.37 12.56Q44.52 12.84 44.77 12.99Q45.03 13.14 45.33 13.14Q45.64 13.14 45.89 12.99Q46.15 12.84 46.3 12.56Q46.45 12.29 46.45 11.91ZM48.47 9.12L48.47 13.56L47.92 13.56L47.92 9.12L48.47 9.12ZM49.68 9.74Q49.52 9.74 49.42 9.63Q49.31 9.52 49.31 9.37Q49.31 9.21 49.42 9.11Q49.52 9 49.68 9Q49.83 9 49.94 9.11Q50.04 9.21 50.04 9.37Q50.04 9.52 49.94 9.63Q49.83 9.74 49.68 9.74ZM49.94 10.27L49.94 13.56L49.4 13.56L49.4 10.27L49.94 10.27ZM51.42 10.89Q51.59 10.59 51.91 10.41Q52.24 10.22 52.65 10.22Q53.1 10.22 53.45 10.43Q53.8 10.64 54.01 11.02Q54.21 11.4 54.21 11.91Q54.21 12.4 54.01 12.8Q53.8 13.18 53.45 13.4Q53.09 13.62 52.65 13.62Q52.23 13.62 51.9 13.43Q51.58 13.25 51.42 12.96L51.42 13.56L50.87 13.56L50.87 9.12L51.42 9.12L51.42 10.89ZM53.65 11.91Q53.65 11.54 53.5 11.26Q53.35 10.98 53.1 10.84Q52.84 10.69 52.54 10.69Q52.24 10.69 51.98 10.84Q51.73 10.99 51.57 11.27Q51.42 11.55 51.42 11.91Q51.42 12.29 51.57 12.56Q51.73 12.84 51.98 12.99Q52.24 13.14 52.54 13.14Q52.84 13.14 53.1 12.99Q53.35 12.84 53.5 12.56Q53.65 12.29 53.65 11.91ZM55.48 9.12L55.48 13.56L54.93 13.56L54.93 9.12L55.48 9.12ZM59.41 11.79Q59.41 11.95 59.39 12.12L56.76 12.12Q56.79 12.61 57.09 12.88Q57.4 13.15 57.83 13.15Q58.18 13.15 58.42 12.99Q58.66 12.82 58.75 12.55L59.34 12.55Q59.21 13.02 58.81 13.32Q58.42 13.62 57.83 13.62Q57.36 13.62 56.99 13.41Q56.62 13.2 56.41 12.81Q56.2 12.42 56.2 11.91Q56.2 11.4 56.41 11.02Q56.61 10.63 56.98 10.43Q57.35 10.22 57.83 10.22Q58.3 10.22 58.66 10.43Q59.02 10.63 59.21 10.99Q59.41 11.34 59.41 11.79ZM58.84 11.68Q58.84 11.37 58.7 11.14Q58.57 10.92 58.33 10.8Q58.09 10.68 57.81 10.68Q57.39 10.68 57.1 10.95Q56.81 11.21 56.77 11.68L58.84 11.68ZM63.16 13.62Q62.7 13.62 62.33 13.41Q61.95 13.2 61.74 12.81Q61.52 12.42 61.52 11.91Q61.52 11.41 61.74 11.02Q61.96 10.63 62.34 10.43Q62.72 10.22 63.19 10.22Q63.65 10.22 64.03 10.43Q64.41 10.63 64.63 11.02Q64.85 11.4 64.85 11.91Q64.85 12.42 64.62 12.81Q64.4 13.2 64.01 13.41Q63.63 13.62 63.16 13.62ZM63.16 13.14Q63.46 13.14 63.71 13Q63.97 12.86 64.13 12.59Q64.29 12.31 64.29 11.91Q64.29 11.52 64.13 11.24Q63.98 10.96 63.73 10.83Q63.47 10.69 63.18 10.69Q62.88 10.69 62.63 10.83Q62.38 10.96 62.23 11.24Q62.08 11.52 62.08 11.91Q62.08 12.31 62.23 12.59Q62.38 12.87 62.62 13Q62.87 13.14 63.16 13.14ZM67.17 10.21Q67.77 10.21 68.14 10.58Q68.52 10.94 68.52 11.62L68.52 13.56L67.98 13.56L67.98 11.7Q67.98 11.21 67.73 10.95Q67.48 10.69 67.06 10.69Q66.62 10.69 66.37 10.96Q66.11 11.23 66.11 11.75L66.11 13.56L65.57 13.56L65.57 10.27L66.11 10.27L66.11 10.74Q66.28 10.49 66.56 10.35Q66.84 10.21 67.17 10.21Z" stroke="#707070" stroke-opacity="0" stroke-width="1.000000"/>
	<path id="Apple Store" d="M57.93 25.56L57.93 18.16L57.02 18.16L57.02 25.56L57.93 25.56ZM37.85 24.01L40.89 24.01L41.44 25.56L42.41 25.56L39.89 18.63L38.84 18.63L36.32 25.56L37.28 25.56L37.85 24.01ZM39.36 19.75L40.62 23.27L38.1 23.27L39.36 19.75ZM44.42 21.09Q44.42 21.09 44.41 21.09L44.41 20.08L43.5 20.08L43.5 28.16L44.41 28.16L44.41 24.55Q44.42 24.56 44.43 24.58Q44.71 25.03 45.23 25.34Q45.27 25.36 45.32 25.39Q45.82 25.65 46.47 25.65Q46.96 25.65 47.39 25.49Q47.6 25.41 47.79 25.29Q47.98 25.18 48.15 25.03Q48.5 24.72 48.72 24.28Q48.73 24.27 48.73 24.26Q49.07 23.62 49.07 22.8Q49.07 21.96 48.72 21.33Q48.51 20.92 48.18 20.63Q48 20.47 47.79 20.34Q47.62 20.24 47.43 20.17Q46.98 19.99 46.47 19.99Q45.78 19.99 45.26 20.28Q45.24 20.3 45.22 20.31Q44.69 20.62 44.42 21.09ZM51.18 21.09Q51.18 21.09 51.17 21.09L51.17 20.08L50.26 20.08L50.26 28.16L51.17 28.16L51.17 24.55Q51.18 24.56 51.19 24.58Q51.47 25.03 51.99 25.34Q52.03 25.36 52.08 25.39Q52.58 25.65 53.23 25.65Q53.72 25.65 54.15 25.49Q54.36 25.41 54.55 25.29Q54.74 25.18 54.91 25.03Q55.26 24.72 55.48 24.28Q55.49 24.27 55.49 24.26Q55.83 23.62 55.83 22.8Q55.83 21.96 55.48 21.33Q55.27 20.92 54.94 20.63Q54.76 20.47 54.55 20.34Q54.38 20.24 54.19 20.17Q53.74 19.99 53.23 19.99Q52.54 19.99 52.02 20.28Q52 20.3 51.98 20.31Q51.45 20.62 51.18 21.09ZM64.45 23.16Q64.48 22.87 64.48 22.61Q64.48 21.93 64.21 21.37Q64.19 21.32 64.16 21.27Q64.01 21 63.82 20.79Q63.57 20.52 63.23 20.33Q63.21 20.32 63.19 20.31Q62.61 19.99 61.85 19.99Q61.08 19.99 60.47 20.32Q60.46 20.33 60.44 20.34Q60.19 20.48 59.99 20.66Q59.69 20.94 59.48 21.32Q59.14 21.96 59.14 22.81Q59.14 23.66 59.49 24.31Q59.71 24.71 60.03 24.99Q60.23 25.17 60.46 25.3Q60.55 25.35 60.64 25.4Q61.19 25.65 61.85 25.65Q62.74 25.65 63.37 25.25Q63.43 25.2 63.5 25.16Q63.84 24.9 64.06 24.57Q64.27 24.25 64.37 23.87L63.4 23.87Q63.31 24.11 63.16 24.3Q63.03 24.48 62.84 24.61Q62.45 24.88 61.85 24.88Q61.41 24.88 61.05 24.71Q60.82 24.6 60.63 24.43Q60.53 24.34 60.45 24.23Q60.12 23.81 60.07 23.16L64.45 23.16ZM63.31 21.53Q63.54 21.9 63.54 22.42L60.08 22.42Q60.14 21.78 60.49 21.36Q60.56 21.28 60.64 21.2Q60.83 21.03 61.06 20.92Q61.4 20.76 61.82 20.76Q62.24 20.76 62.6 20.92Q62.64 20.94 62.69 20.96Q62.89 21.06 63.05 21.2Q63.2 21.34 63.31 21.53ZM47.88 21.73Q48.14 22.18 48.14 22.8Q48.14 23.43 47.88 23.9Q47.7 24.24 47.43 24.46Q47.32 24.54 47.21 24.61Q47.06 24.69 46.9 24.75Q46.61 24.85 46.28 24.85Q45.98 24.85 45.72 24.77Q45.53 24.71 45.35 24.61Q45.25 24.55 45.16 24.48Q44.86 24.25 44.67 23.9Q44.41 23.43 44.41 22.81Q44.41 22.2 44.67 21.74Q44.87 21.38 45.17 21.15Q45.26 21.08 45.35 21.03Q45.53 20.92 45.73 20.86Q45.99 20.78 46.28 20.78Q46.61 20.78 46.91 20.89Q47.07 20.94 47.21 21.02Q47.32 21.09 47.43 21.17Q47.7 21.39 47.88 21.73ZM54.64 21.73Q54.9 22.18 54.9 22.8Q54.9 23.43 54.64 23.9Q54.46 24.24 54.19 24.46Q54.08 24.54 53.97 24.61Q53.82 24.69 53.66 24.75Q53.37 24.85 53.04 24.85Q52.74 24.85 52.48 24.77Q52.29 24.71 52.11 24.61Q52.01 24.55 51.92 24.48Q51.62 24.25 51.43 23.9Q51.17 23.43 51.17 22.81Q51.17 22.2 51.43 21.74Q51.63 21.38 51.93 21.15Q52.02 21.08 52.11 21.03Q52.29 20.92 52.49 20.86Q52.75 20.78 53.04 20.78Q53.37 20.78 53.67 20.89Q53.83 20.94 53.97 21.02Q54.08 21.09 54.19 21.17Q54.46 21.39 54.64 21.73Z" fill="#FFFFFF" fill-opacity="1.000000" fill-rule="evenodd"/>
	<path id="Apple Store" d="M40.89 24.01L37.85 24.01L37.28 25.56L36.32 25.56L38.84 18.63L39.89 18.63L42.41 25.56L41.44 25.56L40.89 24.01ZM40.62 23.27L39.36 19.75L38.1 23.27L40.62 23.27ZM44.41 21.09Q44.69 20.62 45.22 20.31Q45.76 19.99 46.47 19.99Q47.2 19.99 47.79 20.34Q48.38 20.69 48.72 21.33Q49.07 21.96 49.07 22.8Q49.07 23.63 48.72 24.28Q48.38 24.93 47.79 25.29Q47.2 25.65 46.47 25.65Q45.76 25.65 45.23 25.34Q44.7 25.02 44.41 24.55L44.41 28.16L43.5 28.16L43.5 20.08L44.41 20.08L44.41 21.09ZM48.14 22.8Q48.14 22.18 47.88 21.73Q47.63 21.26 47.21 21.02Q46.79 20.78 46.28 20.78Q45.77 20.78 45.35 21.03Q44.92 21.27 44.67 21.74Q44.41 22.2 44.41 22.81Q44.41 23.43 44.67 23.9Q44.92 24.36 45.35 24.61Q45.77 24.85 46.28 24.85Q46.79 24.85 47.21 24.61Q47.63 24.36 47.88 23.9Q48.14 23.43 48.14 22.8ZM51.17 21.09Q51.45 20.62 51.98 20.31Q52.52 19.99 53.23 19.99Q53.96 19.99 54.55 20.34Q55.14 20.69 55.48 21.33Q55.83 21.96 55.83 22.8Q55.83 23.63 55.48 24.28Q55.14 24.93 54.55 25.29Q53.96 25.65 53.23 25.65Q52.52 25.65 51.99 25.34Q51.46 25.02 51.17 24.55L51.17 28.16L50.26 28.16L50.26 20.08L51.17 20.08L51.17 21.09ZM54.9 22.8Q54.9 22.18 54.64 21.73Q54.39 21.26 53.97 21.02Q53.55 20.78 53.04 20.78Q52.53 20.78 52.11 21.03Q51.68 21.27 51.43 21.74Q51.17 22.2 51.17 22.81Q51.17 23.43 51.43 23.9Q51.68 24.36 52.11 24.61Q52.53 24.85 53.04 24.85Q53.55 24.85 53.97 24.61Q54.39 24.36 54.64 23.9Q54.9 23.43 54.9 22.8ZM57.93 18.16L57.93 25.56L57.02 25.56L57.02 18.16L57.93 18.16ZM64.48 22.61Q64.48 22.87 64.45 23.16L60.07 23.16Q60.13 23.97 60.63 24.43Q61.13 24.88 61.85 24.88Q62.45 24.88 62.84 24.61Q63.23 24.33 63.4 23.87L64.37 23.87Q64.15 24.66 63.5 25.16Q62.84 25.65 61.85 25.65Q61.08 25.65 60.46 25.3Q59.85 24.95 59.49 24.31Q59.14 23.66 59.14 22.81Q59.14 21.96 59.48 21.32Q59.83 20.68 60.44 20.34Q61.05 19.99 61.85 19.99Q62.64 19.99 63.23 20.33Q63.83 20.67 64.16 21.27Q64.48 21.86 64.48 22.61ZM63.54 22.42Q63.54 21.9 63.31 21.53Q63.09 21.15 62.69 20.96Q62.29 20.76 61.82 20.76Q61.12 20.76 60.64 21.2Q60.16 21.64 60.08 22.42L63.54 22.42Z" stroke="#707070" stroke-opacity="0" stroke-width="1.000000"/>
</svg>
